<svg xmlns="http://www.w3.org/2000/svg" viewBox="0 0 72 35.68"><defs><style>.cls-1{fill:#ec008c;}</style></defs><title>button-bg</title><g id="Layer_2" data-name="Layer 2"><g id="Layer_1-2" data-name="Layer 1"><path class="cls-1" d="M18.11,35.13c-2.65,0-5.3-.13-8-.1-2.22,0-4.81.11-6.7-.9C1,32.81.59,30,.48,28c-.15-2.73.15-5.45.16-8.17C.64,16.86.11,14,0,11-.09,7.5,0,1.25,6,.19c2.48-.43,5.12.15,7.6.28C21.08.87,28.42.08,35.91,0c4.83,0,9.55.9,14.37,1,3,.05,6-.51,9-.72,1.39-.09,2.78-.07,4.17,0,2.45.07,5.39,0,6.38,2a5.69,5.69,0,0,1,.44,1.42c.41,2,.87,3.94,1.14,5.93.15,1.1.17,2.2.22,3.3s.06,2.11,0,3.16a15.69,15.69,0,0,0,.26,3,9.28,9.28,0,0,1,0,2.47c-.17,1.7-.54,3.37-.69,5.07a11.11,11.11,0,0,0,.18,3.68,5.33,5.33,0,0,1,.07,1.95,2.76,2.76,0,0,1-1.15,1.94h0c-1.84,1.3-4.93,1.3-7.32,1.31-.95,0-1.9,0-2.85-.09-2-.09-4.08-.05-6.11,0-3.93.18-7.79.37-11.73.25s-7.88-.37-11.82-.52c-3.39-.12-6.78-.15-10.16-.2"/></g></g></svg>