<svg xmlns="http://www.w3.org/2000/svg" viewBox="0 0 345.05 448.39"><defs><style>.cls-1{fill:#ffde17;}</style></defs><title>clip-rectangle</title><g id="Layer_2" data-name="Layer 2"><g id="Layer_1-2" data-name="Layer 1"><path class="cls-1" d="M5.31,112.79c-.47-16.54,1.29-33,1-49.56C6,49.4,5.24,33.25,15,21.48,27.78,6.07,54.89,3.66,74.77,3c26.32-.9,52.65,1,79,1C182,4,210,.66,238.24.12c34.27-.66,94.74,0,104.93,37.15,4.23,15.39-1.41,31.84-2.68,47.27-3.85,46.75,3.79,92.48,4.54,139.07.48,30.1-8.72,59.5-9.4,89.53-.42,18.89,5,37.34,7,56a167.05,167.05,0,0,1,.35,26c-.73,15.26-.07,33.53-19.53,39.7a80.77,80.77,0,0,1-13.79,2.76c-18.91,2.54-38.12,5.43-57.29,7.08-10.62.92-21.3,1.09-32,1.37-10.19.27-20.38.39-30.57.18a234.56,234.56,0,0,0-28.66,1.61,145.1,145.1,0,0,1-23.95,0c-16.38-1.06-32.59-3.4-49-4.32-12.09-.68-23.63-.76-35.59,1.13a79.64,79.64,0,0,1-18.9.44c-6.82-.55-13.89-2.72-18.8-7.18h0C2.35,426.55,2.38,407.26,2.26,392.38c0-5.91.5-11.81.91-17.7a280,280,0,0,0-.4-38.1c-1.69-24.46-3.55-48.48-2.43-73s3.65-49.07,5-73.63c1.19-21.07,1.44-42.18,2-63.27"/></g></g></svg>
