<svg xmlns="http://www.w3.org/2000/svg" viewBox="0 0 70.56 207.6"><defs><style>.cls-1{fill:#369988;}.cls-2{fill:#252b68;}</style></defs><title>diaspora-model-mobile</title><g id="Layer_2" data-name="Layer 2"><g id="Layer_1-2" data-name="Layer 1"><path class="cls-1" d="M28.12,154.48c.13-1.2.27-2.4.39-3.61.29-2.94.43-21,.51-24.05,0-1.63.06-3.25.07-4.88,0-1.21-.58-3.41,1.09-3.54a17.33,17.33,0,0,1,4-.19,31.2,31.2,0,0,0,3.21.12,12.08,12.08,0,0,1,1.35.08c.63.08.81.36.76,1s-.06,1.31-.1,2c0,1-.09,1.94-.2,2.9-.3,2.65-.64,20.29-1,22.94a4.43,4.43,0,0,0-.06.51,23.49,23.49,0,0,1-.66,4.41,30.48,30.48,0,0,0-.41,3.29c-.14,1.83-.24,3.66-.56,5.47-.27,1.54-.46,3.08-.65,4.63a11.47,11.47,0,0,0-.06,1.76c0,.54.12.63.68.72.34,0,.7,0,1,.08.65.09,1.3.18,1.94.32.44.1.54.36.36.79a2.79,2.79,0,0,1-.24.45c-1.22,1.76-2.44,3.53-3.68,5.28-.4.56-.85,1.09-1.3,1.62s-.88.61-1.44.14A50.52,50.52,0,0,0,28,173.22c-1.43-.91-2.91-1.75-4.35-2.64a15.75,15.75,0,0,1-1.35-1,2.75,2.75,0,0,1-.49-.53.57.57,0,0,1,.34-.9,3.5,3.5,0,0,1,1.33,0,9.06,9.06,0,0,0,2.38.15c1.28-.08,1.18,0,1.28-1.22.09-1,.09-2.08.18-3.12.21-2.48.45-5,.68-7.44l.21-2.06Z"/><path class="cls-1" d="M37.92,55.34c0,4.19-.2,8.38.16,12.55,0,.2.14.32.31.3a24.06,24.06,0,0,0,2.55-.14c.37-.07,3-.39,1.85.81-.49.53-1,1-1.54,1.52q-1.52,1.38-3.06,2.73a29,29,0,0,1-3.14,2.61.91.91,0,0,1-1,.08l-.17-.08c-2.71-1.79-5.53-3.38-8.26-5.15-.69-.45-1.63-.87-1.47-1.32s2.12-.35,2.55-.36L29,68.83l.46,0c.21,0,.25-.13.21-.34-.1-.64-.22-1.29-.29-1.94-.6-5.54-.32-39.47-1-45-.19-1.68.08-2,1.6-2.09l4.54-.28c1-.08,2.56-.53,3.13.77a3.59,3.59,0,0,1,.2,1.14C38,23,37.93,53.36,37.92,55.34Z"/><path class="cls-2" d="M49.37,6.85a3.3,3.3,0,0,1,0,.54.43.43,0,0,1-.59.26A.68.68,0,0,1,48.34,7c0-.79-.08-1.59-.11-2.39s0-1.38,0-2.07a.9.9,0,0,0-.08-.47c0-.07-.26,0-.39,0a.47.47,0,0,1-.26-.77,1,1,0,0,1,.17-.18,3,3,0,0,1,4.8.8,3.27,3.27,0,0,1,.42,2.22.93.93,0,0,0,.29.89,4.21,4.21,0,0,1,.81,1.33,1.93,1.93,0,0,0,1,1.19.31.31,0,0,1,.17.17.75.75,0,0,1,.07.45.59.59,0,0,1-.39.27.94.94,0,0,1-.82-.31A3.51,3.51,0,0,1,53.13,7q-.2-.45-.42-.9a3,3,0,0,0-.33-.46A.27.27,0,0,0,52,5.52a6.59,6.59,0,0,1-.57.34,2.86,2.86,0,0,1-1.74.37c-.34,0-.36,0-.35.34C49.35,6.65,49.36,6.73,49.37,6.85Zm-.2-4.39h0c0,.24,0,.49,0,.74s.09.41.39.39a3.93,3.93,0,0,1,1.95.24c.2.07.31,0,.32-.23a2.48,2.48,0,0,0-.57-1.69,1.53,1.53,0,0,0-1.12-.62c-1-.06-1,0-1,.92Zm1,2.08a3.25,3.25,0,0,0-.56.14.29.29,0,0,0-.15.25.32.32,0,0,0,.17.25,1.38,1.38,0,0,0,1,0c.2-.07.52-.1.51-.34s-.32-.22-.52-.26Z"/><path class="cls-2" d="M30.15,5.05V7c0,.14,0,.27,0,.41,0,.32-.21.52-.44.5a.51.51,0,0,1-.47-.49c0-.6,0-1.21,0-1.81,0-.8.06-1.6.1-2.4,0-.55.09-1.1.15-1.65a1.09,1.09,0,0,1,.15-.46c.17-.35.38-.41.74-.21a4,4,0,0,1,1.24,1.19c.42.54.81,1.12,1.21,1.68.09.13.18.27.29.4a.3.3,0,0,0,.5,0,5.67,5.67,0,0,0,1.58-2c.09-.2.17-.41.25-.61a2.85,2.85,0,0,1,.68-1A.57.57,0,0,1,37,.74a1.68,1.68,0,0,1,.09.32,16.76,16.76,0,0,1,.63,4.16,12.64,12.64,0,0,0,.15,2.3.45.45,0,0,1-.28.54A.58.58,0,0,1,37,7.88a1.29,1.29,0,0,1-.19-.54c0-.44,0-.88-.05-1.32q-.13-1.81-.3-3.63a.44.44,0,0,0-.05-.15s-.13.09-.16.15a9.36,9.36,0,0,1-1.54,2.25,2.57,2.57,0,0,1-1.15.78.71.71,0,0,1-.89-.23c-.23-.3-.45-.63-.67-.94C31.49,3.6,31,3,30.55,2.3c0,0-.14-.06-.21-.06s-.05.09-.06.14C30.24,3.26,30.19,4.14,30.15,5.05Z"/><path class="cls-2" d="M26.37,4c0,.19,0,.38-.05.57a.71.71,0,0,0,.17.54,3.59,3.59,0,0,1,.65,1.33,3.32,3.32,0,0,0,.54,1.1c.22.3.18.58-.05.73a.57.57,0,0,1-.8-.16,13.35,13.35,0,0,1-.64-1.25c-.11-.25-.17-.52-.26-.78s-.2-.22-.39-.08a2.86,2.86,0,0,1-.84.51,2.69,2.69,0,0,1-1.23,0c-.23,0-.31.08-.24.28s.16.36.22.54a.41.41,0,0,1-.2.56.48.48,0,0,1-.6-.13.94.94,0,0,1-.15-.28c-.26-.93-.54-1.86-.76-2.79a3.24,3.24,0,0,1,0-1.72,3,3,0,0,1,2.05-2,1.9,1.9,0,0,1,2.44,1.48c.07.49.1,1,.15,1.48Zm-.95-.41c0-.3-.07-.63-.14-.95-.15-.63-.44-.82-1.08-.72a2.09,2.09,0,0,0-1.64,2.38.16.16,0,0,0,.25.12,2.73,2.73,0,0,1,2-.24l.24,0A.29.29,0,0,0,25.39,4,3.06,3.06,0,0,0,25.42,3.63ZM24.13,5.08c-.14,0-.38.08-.6.15-.06,0-.15.13-.14.18s.1.21.17.23a1.22,1.22,0,0,0,1.15-.19s.08-.11.07-.13a.3.3,0,0,0-.16-.17A3.13,3.13,0,0,0,24.13,5.08Z"/><path class="cls-2" d="M43.3,1H41.57a4.89,4.89,0,0,0-.66.05c-.33.05-.41.15-.4.49l.06,1.41a.25.25,0,0,0,.32.26,5.44,5.44,0,0,0,2-.49.35.35,0,0,1,.51.1.47.47,0,0,1,.08.6,1,1,0,0,1-.37.32,3.55,3.55,0,0,1-.78.25c-.38.08-.76.12-1.14.19s-.5.18-.5.62a7.67,7.67,0,0,0,0,1.07c.08.57.31.75.89.74a5.07,5.07,0,0,0,1.67-.42c.18-.07.35-.17.53-.24a.46.46,0,0,1,.57.2.44.44,0,0,1,0,.54.85.85,0,0,1-.35.33,9,9,0,0,1-2.3.64,1.84,1.84,0,0,1-2-1.64,2.81,2.81,0,0,1-.06-.65,1.16,1.16,0,0,0-.35-1.05.34.34,0,0,1,0-.52A.8.8,0,0,0,39.58,3c-.08-.71.07-1.42,0-2.14A.42.42,0,0,1,39.71.5a2,2,0,0,1,.73-.37A6.33,6.33,0,0,1,41.75,0C42.82,0,43.9,0,45,0a4.17,4.17,0,0,1,.5,0c.38,0,.57.21.57.47s-.2.43-.59.44-1,0-1.57,0H43.3Z"/><path class="cls-2" d="M20,8a.48.48,0,0,1-.36.49.55.55,0,0,1-.62-.3,2.8,2.8,0,0,1-.16-.72c-.08-.52-.13-1-.2-1.55-.05-.35-.16-.42-.5-.37-.9.13-1.8.26-2.69.42a.42.42,0,0,0-.29.23c-.17.41-.32.82-.46,1.24s-.34.49-.61.41a.51.51,0,0,1-.35-.65,5.21,5.21,0,0,1,.32-.94c.63-1.28,1.27-2.57,1.93-3.84a3,3,0,0,1,1.24-1.19.81.81,0,0,1,1.15.31,2.92,2.92,0,0,1,.34.74c.27.93.55,1.85.76,2.79s.32,1.85.48,2.77A1,1,0,0,1,20,8ZM16.38,4.79l1.76-.27a.23.23,0,0,0,.18-.31c-.18-.63-.38-1.25-.58-1.88-.07-.2-.21-.22-.38-.06A6.42,6.42,0,0,0,16,4.55c0,.12,0,.2.16.22Z"/><path class="cls-2" d="M9.91,1.41h2.23a1,1,0,0,1,.76.25.38.38,0,0,1,.09.46c-.07.16-.17.29-.37.26a25.38,25.38,0,0,0-3.8.05,2.88,2.88,0,0,0-.41,0,.28.28,0,0,0-.26.27.22.22,0,0,0,0,.08c.27,1.47-.1,1.36,1.44,1.25l1.82-.14a.85.85,0,0,1,.68.23.37.37,0,0,1,.12.44.7.7,0,0,1-.34.32,2.64,2.64,0,0,1-.57,0l-2.46.28a.26.26,0,0,0-.24.35c.11.46.23.91.35,1.36,0,.19.13.37.16.56A.41.41,0,0,1,8.89,8a.43.43,0,0,1-.59-.1A1.78,1.78,0,0,1,8,7.28a24.31,24.31,0,0,1-.77-4.05c0-.35-.06-.66-.49-.74-.09,0-.18-.13-.24-.21a.35.35,0,0,1,.12-.56,4.87,4.87,0,0,1,1.12-.24c.71,0,1.43,0,2.15,0Z"/><path class="cls-2" d="M39.62,95.94a3.15,3.15,0,0,1,3.14,3.18,2.46,2.46,0,0,1-.41,1.21.34.34,0,0,0,0,.47c.44.62.86,1.26,1.29,1.88a3.17,3.17,0,0,0,.34.39.39.39,0,0,1,.14.41.51.51,0,0,1-.45.35.67.67,0,0,1-.65-.31,4.32,4.32,0,0,1-.32-.69,4.45,4.45,0,0,0-1-1.51.22.22,0,0,0-.33,0,3.71,3.71,0,0,1-2,.83c-.19,0-.2.18-.27.31a.38.38,0,0,1-.7.07,15.13,15.13,0,0,1-.5-1.71,2.12,2.12,0,0,1,.28-.61,1.29,1.29,0,0,0,.31-.83c0-.35.09-.71.09-1.06a6.86,6.86,0,0,0-.09-.9c0-.13-.11-.15-.23-.1a.59.59,0,0,1-.14.06c-.21,0-.32-.1-.42-.25a.32.32,0,0,1,.05-.42,2.23,2.23,0,0,1,1.31-.7A3.81,3.81,0,0,1,39.62,95.94Zm0,2.47c0,.4-.06.63-.08.86a.28.28,0,0,0,.25.32,4.74,4.74,0,0,1,1.16.31c.45.19.53.14.76-.32a1.88,1.88,0,0,0,.2-.56,2,2,0,0,0-2.17-2.24.24.24,0,0,0-.25.3C39.49,97.58,39.54,98.08,39.57,98.41Zm-.27,2.52c0,.29.11.41.31.33s.58-.28.87-.44a.13.13,0,0,0,0-.23c-.25-.06-.49-.13-.73-.17a.31.31,0,0,0-.39.27C39.32,100.78,39.31,100.88,39.3,100.93Z"/><path class="cls-2" d="M.16,98.43c0-.45,0-.88-.07-1.31s.07-.45.4-.53a4.18,4.18,0,0,1,3.36.46,3.39,3.39,0,0,1,1.59,3.15,3.13,3.13,0,0,1-.1.6,2.27,2.27,0,0,1-1.49,1.77c-.42.15-.86.27-1.29.42a2.61,2.61,0,0,1-1.49,0c-.29-.07-.61,0-.84-.27a1.38,1.38,0,0,1-.23-.94c0-.63,0-1.26.07-1.89S.13,98.91.16,98.43Zm.8,2.88h0c0,.22,0,.5.15.64a.91.91,0,0,0,.89.28l.15,0a9.71,9.71,0,0,0,1.22-.41,2.24,2.24,0,0,0,1.12-2.69,2.77,2.77,0,0,0-3-1.85c-.25,0-.33.13-.34.42s0,.81,0,1.21C1,99.7,1,100.5,1,101.31Z"/><path class="cls-2" d="M45.22,102A7.34,7.34,0,0,1,46,98.69a1.37,1.37,0,0,1,.69-.77.67.67,0,0,0,.29-.24A2.33,2.33,0,0,1,48.23,97a.76.76,0,0,1,.88.26,3,3,0,0,1,.8,1.68.77.77,0,0,0,.41.67c.28.15.28.35,0,.57a.47.47,0,0,0-.18.46c0,.7,0,1.41.05,2.12,0,.4-.14.62-.37.67s-.54-.18-.61-.56a1.89,1.89,0,0,1,0-.75,5.26,5.26,0,0,0,0-1.43.22.22,0,0,0-.25-.22c-.23,0-.46.06-.68.07-.56,0-1.11.07-1.67.09a.33.33,0,0,0-.36.3c0,.3-.07.6-.09.91s0,.5,0,.75a.38.38,0,0,1-.32.38.5.5,0,0,1-.5-.27.7.7,0,0,1-.08-.29A1.94,1.94,0,0,1,45.22,102Zm2.24-2.3a6.15,6.15,0,0,0,.75-.07c.83-.15,1,0,.69-1a3.78,3.78,0,0,0-.21-.56c-.11-.24-.24-.28-.49-.19a2.56,2.56,0,0,0-1.32,1.08c-.13.2-.32.4-.24.68l.67.07Z"/><path class="cls-2" d="M15.83,100.64v1.14c0,.13,0,.26,0,.38,0,.3-.19.5-.38.5a.67.67,0,0,1-.67-.5,3.42,3.42,0,0,1,0-.45c0-.3.08-.6.09-.91,0-.7,0-.76-.75-.81a5.53,5.53,0,0,0-.91,0c-.41,0-.81.06-1.21.1s-.42.14-.42.43,0,.66,0,1c0,.13,0,.25,0,.38a.36.36,0,0,1-.54.31.62.62,0,0,1-.35-.62,9.37,9.37,0,0,1,.29-2.93,3.06,3.06,0,0,1,.62-1.28,3.16,3.16,0,0,1,1.88-1,1.42,1.42,0,0,1,1.5.67,5.18,5.18,0,0,1,.74,2.59c0,.35,0,.71,0,1.06Zm-1.35-1.5.17,0c.17.08.23,0,.2-.16a4.47,4.47,0,0,0-.42-1.52.73.73,0,0,0-.95-.39A2.32,2.32,0,0,0,11.93,99a.14.14,0,0,0,.16.18l1.74,0C14.05,99.13,14.28,99.14,14.48,99.14Z"/><path class="cls-2" d="M30.85,100.14a3.73,3.73,0,0,1,.57-1.84,1.54,1.54,0,0,0,.34-.91c0-.24.16-.4.4-.49a2.68,2.68,0,0,1,2.68.19,5.05,5.05,0,0,1,.83.77,2.47,2.47,0,0,1,.16,3.1,4,4,0,0,1-2.79,1.8,1.44,1.44,0,0,1-1.21-.32A2.61,2.61,0,0,1,30.85,100.14Zm4.48-.8a1.82,1.82,0,0,0-1.58-1.82.78.78,0,0,0-.93.44,2.14,2.14,0,0,1-.3.44,3.58,3.58,0,0,0-.69,1.57,1.84,1.84,0,0,0,.23,1.46.79.79,0,0,0,1,.38,3.39,3.39,0,0,0,1.77-1.09A2,2,0,0,0,35.33,99.34Z"/><path class="cls-2" d="M27,96a16.28,16.28,0,0,1,1.72.31,1.34,1.34,0,0,1,1,1.74,2.33,2.33,0,0,1-.59,1.13,6.19,6.19,0,0,1-2,1.46.84.84,0,0,0-.57.79,7.15,7.15,0,0,1-.16,1.13c-.08.35-.32.42-.63.22a.6.6,0,0,1-.3-.65c0-.3.08-.6.14-.9a1.22,1.22,0,0,0-.07-.88.48.48,0,0,1,.07-.51,1.23,1.23,0,0,0,.16-.73c0-.6-.06-1.21-.1-1.82a2.17,2.17,0,0,0-.13-.5c-.09-.26-.06-.34.2-.48A3,3,0,0,1,27,96Zm.33.88v0h-.3c-.37,0-.42.07-.41.46l.09,1.43c0,.3.06.59.09.89.37,0,.59-.25.82-.44a6.63,6.63,0,0,0,.95-1,1,1,0,0,0,.22-.78.42.42,0,0,0-.34-.43Z"/><path class="cls-2" d="M20.16,95.44a2.45,2.45,0,0,1,2.4,2,3.83,3.83,0,0,1,.1.82.29.29,0,0,1-.44.25,1.17,1.17,0,0,1-.61-.82,3.66,3.66,0,0,0-.26-.79,1.4,1.4,0,0,0-2.05-.27.36.36,0,0,0-.08.42c.14.3.27.6.43.88.32.55.67,1.08,1,1.62a2.31,2.31,0,0,1,.28.62,1.69,1.69,0,0,1-2,2.14,2.14,2.14,0,0,1-1.46-1c-.11-.16-.17-.32,0-.48a.47.47,0,0,1,.62-.07c.15.13.27.3.42.44a.94.94,0,0,0,1.3,0,.7.7,0,0,0,.2-.83c-.18-.39-.35-.79-.55-1.16a20.84,20.84,0,0,1-1.16-2.13c-.16-.43-.14-.56.17-.88A2.42,2.42,0,0,1,20.16,95.44Z"/><path class="cls-2" d="M59.12,103.77a2.94,2.94,0,0,1-2.91-2.26,1.94,1.94,0,0,1,.15-1.34,5.11,5.11,0,0,1,1.32-1.83,5.74,5.74,0,0,1,1.84-1.18,1.06,1.06,0,0,1,1.13.21,1.15,1.15,0,0,1,.15,1.39.25.25,0,0,1-.34.07.75.75,0,0,1-.38-.62.21.21,0,0,0-.33-.17,10.71,10.71,0,0,0-1.15.74,4.82,4.82,0,0,0-1.35,1.71,1.6,1.6,0,0,0,1.25,2.33,2.71,2.71,0,0,0,1.76-.35,3.4,3.4,0,0,0,.3-.23c.25-.16.43-.16.55,0a.54.54,0,0,1,.08.69,1.18,1.18,0,0,1-.31.32A3.33,3.33,0,0,1,59.12,103.77Z"/><path class="cls-2" d="M65.16,103.37a2,2,0,0,1-2.07-1.79,1.13,1.13,0,0,1,.83-1.34,2.32,2.32,0,0,1,3,1.35.88.88,0,0,1-.12.93A1.78,1.78,0,0,1,65.16,103.37Zm-.35-2.44a2.34,2.34,0,0,0-.51.13.71.71,0,0,0-.12,1.15A1.23,1.23,0,0,0,66,102a.35.35,0,0,0,0-.28A1.42,1.42,0,0,0,64.81,100.93Z"/><path class="cls-2" d="M7.42,101.55a11.13,11.13,0,0,0,0-2.94,7.81,7.81,0,0,1-.14-.82,1.21,1.21,0,0,1,0-.38.39.39,0,0,1,.63-.24.74.74,0,0,1,.25.37,12.52,12.52,0,0,1,.31,3.23,4,4,0,0,0,0,1.5.52.52,0,0,1-.38.58.65.65,0,0,1-.69-.47,3.38,3.38,0,0,1,0-.45C7.39,101.8,7.41,101.68,7.42,101.55Z"/><path class="cls-2" d="M69.91,102a.61.61,0,0,1,.64.51.55.55,0,0,1-.48.58.62.62,0,0,1-.59-.66A.42.42,0,0,1,69.91,102Z"/><path class="cls-2" d="M33.16,201.31a3.63,3.63,0,0,1-2.26,3.46,2.92,2.92,0,0,1-3.46-1,3.45,3.45,0,0,1-.61-3.12,9.44,9.44,0,0,1,1-2.53,2.19,2.19,0,0,1,2.66-.86,3.38,3.38,0,0,1,1.08.75,7.78,7.78,0,0,1,1.31,1.89A2.67,2.67,0,0,1,33.16,201.31Zm-1-.24a3.12,3.12,0,0,0-.25-.95,11.76,11.76,0,0,0-1.26-1.73,1.14,1.14,0,0,0-1.51-.15,2.09,2.09,0,0,0-.91,1.14,8.88,8.88,0,0,0-.49,2.17,2.63,2.63,0,0,0,.34,1.51,1.64,1.64,0,0,0,1.39.89,2.31,2.31,0,0,0,2-.82A3.07,3.07,0,0,0,32.14,201.07Z"/><path class="cls-2" d="M18,202.5a1.63,1.63,0,0,1,0-.36.54.54,0,0,0-.19-.59,20.65,20.65,0,0,1-2.25-2.84c-.26-.39-.51-.79-.75-1.18a.76.76,0,0,1-.11-.22c-.07-.26.16-.55.41-.48a1.22,1.22,0,0,1,.56.3,2.88,2.88,0,0,1,.47.67,18.23,18.23,0,0,0,2.31,3,1.7,1.7,0,0,0,.24.22.35.35,0,0,0,.46,0c.29-.2.59-.4.87-.63a26.93,26.93,0,0,0,2.46-2.55c.14-.14.25-.3.39-.43a.56.56,0,0,1,.69-.06.44.44,0,0,1,.18.63.71.71,0,0,1-.1.14c-.71.76-1.4,1.55-2.14,2.3-.44.44-1,.83-1.43,1.24a4.15,4.15,0,0,0-.32.27c-.72.7-.79.46-.62,1.6s.26,2.3.38,3.45a.48.48,0,0,1-.26.55.57.57,0,0,1-.71-.27,1.5,1.5,0,0,1-.14-.47c-.08-.76-.15-1.53-.22-2.3S18.07,203.21,18,202.5Z"/><path class="cls-2" d="M42.79,199.59c0-.38-.08-.82-.1-1.26s.13-.61.37-.65a.65.65,0,0,1,.69.56,7.74,7.74,0,0,1,.1,1.07c0,.66,0,1.32-.07,2a3.17,3.17,0,0,1-.88,1.92,9.11,9.11,0,0,1-1.33,1.23,2.18,2.18,0,0,1-2.62.15,1.9,1.9,0,0,1-.5-.43,5,5,0,0,1-1-2.39,8.85,8.85,0,0,1,.21-3.44c0-.11.05-.22.08-.32a.36.36,0,0,1,.42-.31c.31,0,.48.17.5.45a5.44,5.44,0,0,1,0,.57c-.05.85-.12,1.71-.13,2.56a3.73,3.73,0,0,0,.59,2,1.1,1.1,0,0,0,1.33.53,1.28,1.28,0,0,0,.31-.11,3.81,3.81,0,0,0,2-2.93C42.76,200.42,42.77,200,42.79,199.59Z"/><path class="cls-2" d="M49,198.35v2.31c0,.32-.13.47-.42.5s-.57-.08-.63-.38a2.81,2.81,0,0,1-.06-.65c0-.61,0-1.21,0-1.81s0-1.27-.07-1.9a5.43,5.43,0,0,1,0-.9c.07-.38.45-.47.76-.22a.9.9,0,0,1,.27.75v2.3Z"/><path class="cls-2" d="M47.8,204.34a.59.59,0,0,1-.48.58.72.72,0,0,1-.72-.55.56.56,0,0,1,.48-.57A.68.68,0,0,1,47.8,204.34Z"/><path class="cls-2" d="M14.75,200.77l-.14,0s0,0,0,0l.13-.05Z"/></g></g></svg>