<svg xmlns="http://www.w3.org/2000/svg" viewBox="0 0 384.7 297.56"><defs><style>.cls-1{fill:#ec008c;}</style></defs><g id="Layer_2" data-name="Layer 2"><g id="Layer_1-2" data-name="Layer 1"><path class="cls-1" d="M312.06,70c-13.76-25.29-49.62-26.33-36.8,9.23,9,22.82,22.3,43.39,32.08,66-1.06,26.56-76.19,10.05-95.49,2.59-70.32-12.73-125-63-170.09-115.52C31.88,25.87,30.67,13.72,23.9,5,3.91-12.26-4.69,19.32,2.52,34.12c32,49.3,76.86,87.87,127.21,116.94,47.84,30.21,102.22,47.68,158.39,43.28,66.61-18.34,1.86,55-22.47,66-15.06,13.52,1.83,30.7,15.73,35.87,9.05,4.8,16.26-4.35,18.3-12.8,12.44-15.3,23.41-28,40-43.55,19.38-18.19,28.77-24.73,39.77-41.67,16.46-21.72-9.72-35.87-21.06-51.21C342.56,121.83,324.31,97.73,312.06,70Z"/></g></g></svg>