<svg xmlns="http://www.w3.org/2000/svg" width="1409.505" height="512.723" viewBox="0 0 1409.505 512.723">
  <path id="Path_291" data-name="Path 291" d="M30.759,553.214c20.6,5.565,82.106,1.281,110.742,1.957,26.657.631,52.869.706,79.266-.537,50.176-2.367,98.557-2.265,149.291-1.419,68.679,1.146,136.695,4.069,205.382,5.388,33.67.646,66.883.963,100.5-.047,40.323-1.21,79.551-2.26,120.185-2.007,42.747.264,85.516.113,128.251-.222,44.711-.348,89.492-.562,134.039-1.7,80.445-2.063,161-5.673,240.327-8.832,19.539-.778,39.212-1.69,57.861-3.448,81.6-7.7,79.815-9.156,82.886-28.183,1.749-10.824,0-467.677,0-467.677H30.759Z" transform="translate(1440.265 559.204) rotate(180)" fill="#ffde16"/>
</svg>
