<svg xmlns="http://www.w3.org/2000/svg" viewBox="0 0 292.84 155.35"><defs><style>.cls-1{fill:#252b68;}.cls-2{fill:#ec008c;}</style></defs><title>trad-model-mobile</title><g id="Layer_2" data-name="Layer 2"><g id="Layer_1-2" data-name="Layer 1"><path class="cls-1" d="M240.56,94.65c-.08.31-.15.63-.25.94a.32.32,0,0,0,.13.42,7.15,7.15,0,0,1,1.37,1.43c.17.21.38.39.56.6a.51.51,0,0,1,.1.6.52.52,0,0,1-.66.19,1.78,1.78,0,0,1-.53-.38c-.19-.19-.33-.43-.51-.64a8.94,8.94,0,0,0-.75-.88c-.39-.38-.48-.36-1-.05a7.6,7.6,0,0,1-.8.42c-.35.17-.77.2-.94.69-.11.31-.54.28-.76,0a1,1,0,0,1-.2-.43c-.07-.46-.12-.93-.16-1.4,0-.71-.07-1.43-.12-2.14a1.09,1.09,0,0,0-.15-.54c-.2-.31-.08-.51.12-.73a2.67,2.67,0,0,1,4.09.47A3.21,3.21,0,0,1,240.56,94.65Zm-2.48.76.39,0h.33c.4,0,.53-.11.63-.49a1.56,1.56,0,0,0-1.93-2c-.34.09-.47.23-.45.58,0,.54.09,1.09.15,1.63,0,.16.14.23.29.23S238,95.41,238.08,95.41Zm-.63,1.27.41-.19c.06,0,.08-.11.12-.16s-.12,0-.16,0l-.44.2a.11.11,0,0,0,0,.08Z"/><path class="cls-1" d="M213.93,96.05V94.89a1.14,1.14,0,0,0-.15-.62.38.38,0,0,1,.16-.61,1.07,1.07,0,0,1,.22-.1,3.35,3.35,0,0,1,3.27.63,2.37,2.37,0,0,1,.65,1.81,1.4,1.4,0,0,1-.05.41.79.79,0,0,0,.29.94,3,3,0,0,1,.78,1.26,1.32,1.32,0,0,0,.61.83c.21.12.2.28.07.5a.71.71,0,0,1-1.24.06,4.77,4.77,0,0,1-.42-.88c-.17-.38-.31-.76-.51-1.13s-.28-.26-.46-.1a3.53,3.53,0,0,1-1.59.86c-.09,0-.19.18-.22.3s-.21.39-.47.38a.58.58,0,0,1-.51-.37,4.17,4.17,0,0,1-.18-.63A9.54,9.54,0,0,1,213.93,96.05Zm2.24.33c.07,0,.28,0,.5.08s.33,0,.33-.23a5.25,5.25,0,0,0-.08-1,1,1,0,0,0-.41-.58,1.86,1.86,0,0,0-1.24-.32.31.31,0,0,0-.31.32c0,.33,0,.65,0,1,0,.77,0,.71.71.77Zm-.38.89a1.61,1.61,0,0,0-.37,0c-.09,0-.22.11-.23.18a.63.63,0,0,0,.07.38s.21,0,.3,0a3.92,3.92,0,0,0,.56-.33.16.16,0,0,0,0-.14s-.06-.08-.1-.09A1.14,1.14,0,0,0,215.79,97.27Z"/><path class="cls-1" d="M191.94,94.88h-1.22c-.33,0-.4.06-.43.36s-.08.65-.11,1,.06.4.38.37a4.37,4.37,0,0,0,1.67-.41,1.13,1.13,0,0,1,.21-.12.61.61,0,0,1,.64.27.39.39,0,0,1-.18.5,4.3,4.3,0,0,1-.9.41c-.37.1-.76.14-1.13.21a4.72,4.72,0,0,0-.65.15.38.38,0,0,0-.22.21c-.09.46-.17.92-.22,1.38,0,.23.12.35.35.38a3.88,3.88,0,0,0,1.62-.21c.19,0,.36-.14.55-.18a.77.77,0,0,1,.4,0c.12,0,.28.15.29.25a.57.57,0,0,1-.13.44,1.4,1.4,0,0,1-.58.3,14.16,14.16,0,0,1-1.69.37,2.26,2.26,0,0,1-.89-.1,1.26,1.26,0,0,1-1-1.62,25.28,25.28,0,0,0,.49-3.35c0-.19,0-.38,0-.57a.9.9,0,0,1,1-1c.28,0,.55.07.83.08h2.06a2.35,2.35,0,0,1,.64.09.29.29,0,0,1,.24.37.91.91,0,0,1-.31.34c-.05,0-.15,0-.24,0Z"/><path class="cls-1" d="M232.06,93.46c-.35,0-.73,0-1.11.06-.68.1-.79.22-.86.89,0,.26,0,.38.3.36a3.94,3.94,0,0,0,1.76-.33.57.57,0,0,1,.31-.07.46.46,0,0,1,.41.35.41.41,0,0,1-.19.5,2.9,2.9,0,0,1-.7.24c-.54.1-1.09.15-1.63.25s-.6.19-.61.7a2.07,2.07,0,0,0,0,.5.43.43,0,0,0,.37.38,2.46,2.46,0,0,0,.66.06,5.47,5.47,0,0,0,1.78-.31.75.75,0,0,1,.71,0,.41.41,0,0,1,.08.73,2.1,2.1,0,0,1-.67.29,8.32,8.32,0,0,1-2.63.22,1.44,1.44,0,0,1-1.41-1.45,6.49,6.49,0,0,1,.08-1.39c.11-.6.3-1.17.41-1.77a1,1,0,0,1,.77-.87,5.57,5.57,0,0,1,2.78-.12.86.86,0,0,1,.61.37c.09.16,0,.38-.15.38C232.81,93.47,232.46,93.46,232.06,93.46Z"/><path class="cls-1" d="M199.33,94.4a7.61,7.61,0,0,1-.24.74,16.91,16.91,0,0,1-.81,1.72.69.69,0,0,0,0,.83c.36.49.7,1,1.06,1.48a4,4,0,0,1,.33.47.39.39,0,0,1-.13.51.54.54,0,0,1-.45.08,2,2,0,0,1-.6-.53c-.3-.4-.56-.82-.84-1.23-.13-.18-.25-.18-.38,0s-.42.65-.61,1a3.94,3.94,0,0,0-.25.68c-.12.38-.34.57-.63.52a.67.67,0,0,1-.52-.81,2.69,2.69,0,0,1,.3-.67c.34-.57.69-1.13,1.06-1.69a.56.56,0,0,0,.05-.67q-.47-.82-.9-1.68a2.24,2.24,0,0,1-.25-.6.35.35,0,0,1,.19-.3.68.68,0,0,1,.79.28l.75,1.29c.15.25.28.26.39,0,.26-.58.49-1.17.73-1.75.15-.37.39-.48.71-.3S199.35,94.06,199.33,94.4Z"/><path class="cls-1" d="M207.3,96.87a4.24,4.24,0,0,1,.42-1.88,3.57,3.57,0,0,0,.4-.89c0-.31.35-.41.62-.48a2.54,2.54,0,0,1,2.71,1.15A3.81,3.81,0,0,1,212,97a1.78,1.78,0,0,1-.84,1.53,6.66,6.66,0,0,1-1.25.63,1.83,1.83,0,0,1-2.17-.75A2.47,2.47,0,0,1,207.3,96.87Zm1.07-.19a1.83,1.83,0,0,0,.36,1.3.66.66,0,0,0,.57.27,1.68,1.68,0,0,0,1.62-1.38,2.37,2.37,0,0,0-.73-2.11,1.85,1.85,0,0,0-.34-.23.52.52,0,0,0-.73.15A3.2,3.2,0,0,0,208.37,96.68Z"/><path class="cls-1" d="M203.43,93.42a4.52,4.52,0,0,1,2.15.5,1.34,1.34,0,0,1,.66.81,1.09,1.09,0,0,1-.18,1,4,4,0,0,1-1.43,1.09,2.55,2.55,0,0,1-.54.22c-.76.21-.7.26-.66,1.08,0,.44.11.87.14,1.31a.5.5,0,0,1-.37.57.64.64,0,0,1-.63-.31,1.63,1.63,0,0,1-.13-.48c0-.46-.06-.93-.08-1.4l-.15-3.39c0-.14,0-.28,0-.42a.4.4,0,0,1,.33-.41C202.88,93.52,203.23,93.46,203.43,93.42Zm.64.88h-.35c-.37,0-.45.11-.42.45s.07.43.07.65c0,1.13.16,1,.91.53a3.69,3.69,0,0,0,.75-.62.46.46,0,0,0-.19-.8A5.89,5.89,0,0,0,204.07,94.3Z"/><path class="cls-1" d="M224,92.92c.68,0,1.2,0,1.72.09a1.88,1.88,0,0,1,.69.23.36.36,0,0,1,0,.62,1.36,1.36,0,0,1-.89.09c-.3,0-.6-.09-.9-.1s-.39.08-.42.38a1.85,1.85,0,0,0,0,.33,23.85,23.85,0,0,0,.47,3,1.2,1.2,0,0,0,.15.37.38.38,0,0,1-.1.52.46.46,0,0,1-.53.08.85.85,0,0,1-.51-.52,4.64,4.64,0,0,1-.17-.64,17.11,17.11,0,0,1-.36-3c0-.52,0-.55-.59-.51s-.88.08-1.32.12c-.22,0-.44,0-.66,0a.57.57,0,0,1-.51-.37.37.37,0,0,1,.17-.49,1.16,1.16,0,0,1,.32-.08Z"/><path class="cls-1" d="M58.34,146.68c.07-1.1.15-2.2.22-3.3a1.09,1.09,0,0,1,.24-.69.48.48,0,0,1,.73-.09,2.69,2.69,0,0,1,.37.44c.25.35.49.73.76,1.07s.55.51,1.06.24a11.53,11.53,0,0,0,1.05-.66c.58-.41,1.15-.85,1.73-1.27s1-.22,1.1.32c.15.7.23,1.42.32,2.13,0,.35,0,.72,0,1.07a1.62,1.62,0,0,0,.21,1,.44.44,0,0,1,.06.23.64.64,0,0,1-.42.65.61.61,0,0,1-.67-.37,2.81,2.81,0,0,1-.18-.8c-.07-.77-.12-1.55-.17-2.32,0-.13,0-.27,0-.41s-.14-.35-.36-.21L64,144c-.77.53-1.55,1-2.32,1.59a.77.77,0,0,1-1-.1c-.3-.28-.57-.6-.86-.89,0,0-.11-.09-.13-.07s-.12.1-.13.16L59.31,147c0,.14,0,.27,0,.41,0,.35-.17.51-.42.52a.61.61,0,0,1-.62-.55,1.83,1.83,0,0,1,0-.33c0-.11,0-.22,0-.33Z"/><path class="cls-1" d="M88.05,148.12a1.54,1.54,0,0,1-.36-.15,6.45,6.45,0,0,1-.65-.63l-2.35-2.46c-.17-.18-.25-.16-.35.06-.31.73-.63,1.47-1,2.2a2.64,2.64,0,0,1-.23.44.52.52,0,0,1-.65.22.6.6,0,0,1-.28-.7c.08-.21.19-.4.28-.6.28-.6.57-1.2.81-1.81a11,11,0,0,0,.3-1.29c0-.13,0-.27.09-.4s.17-.37.39-.39a.49.49,0,0,1,.53.31c.27,1,1.12,1.61,1.76,2.35.36.42.77.8,1.16,1.18.17.18.26.16.37,0a9.06,9.06,0,0,0,.73-2.28,12.18,12.18,0,0,1,.36-1.35,1.16,1.16,0,0,1,.67-.7.69.69,0,0,1,.64,0,.34.34,0,0,1,.13.55,2.77,2.77,0,0,0-.76,1.7,12.45,12.45,0,0,1-.78,2.61c-.12.28-.2.57-.32.85A.5.5,0,0,1,88.05,148.12Z"/><path class="cls-1" d="M74.53,147.75a.47.47,0,0,1-.43-.58,4.58,4.58,0,0,1,.44-1c.79-1.19,1.61-2.37,2.43-3.54a.62.62,0,0,1,1.12,0,13.13,13.13,0,0,1,.68,1.22,2.09,2.09,0,0,1,.21.54c.06.32.47.34.51.6s-.15.52-.12.77a14.3,14.3,0,0,0,.29,1.45c0,.22.12.43.15.65a.53.53,0,0,1-.34.59.56.56,0,0,1-.58-.24,1.21,1.21,0,0,1-.17-.46c-.13-.56-.23-1.13-.36-1.7-.07-.31-.15-.36-.46-.34-.52,0-1,.1-1.56.13a.86.86,0,0,0-.75.43,4.11,4.11,0,0,0-.57,1.1A.46.46,0,0,1,74.53,147.75Zm2.65-2.89c1,0,.86-.05.64-.76a1.81,1.81,0,0,0-.18-.37c-.06-.09-.16-.18-.26,0-.24.3-.47.6-.7.92-.08.11,0,.21.1.24A3.36,3.36,0,0,0,77.18,144.86Z"/><path class="cls-1" d="M70.51,142.15a5.37,5.37,0,0,1,1.94.35,2.91,2.91,0,0,1,.66.33,1,1,0,0,1,.35,1.5,2.25,2.25,0,0,1-.88.85c-.53.29-1.06.59-1.61.84a.62.62,0,0,0-.42.71,4.5,4.5,0,0,1,0,.82.58.58,0,0,1-.24.39.43.43,0,0,1-.53-.05.76.76,0,0,1-.32-.64c0-.63-.1-1.25,0-1.89a7.3,7.3,0,0,0-.16-2.63c-.09-.34,0-.54.39-.57S70.23,142.15,70.51,142.15Zm0,1.82c0,.28.06.61.1.94a.27.27,0,0,0,.18.11A4.89,4.89,0,0,0,72.41,144c.25-.29.21-.51-.14-.64a3.74,3.74,0,0,0-.87-.24C70.45,143,70.41,142.9,70.48,144Z"/><path class="cls-1" d="M51.85,145.87a4.08,4.08,0,0,1,.11-.6A6.24,6.24,0,0,1,53.31,143a.62.62,0,0,1,.95-.14c.54.33,1.07.68,1.58,1.05a2.18,2.18,0,0,1,.75,1,1.46,1.46,0,0,1,0,1.21,3.72,3.72,0,0,1-2.41,2.1,1.36,1.36,0,0,1-1.31-.28A2.72,2.72,0,0,1,51.85,145.87Zm3.85-.56a3,3,0,0,0-.25-.54,3.22,3.22,0,0,0-1.29-1,.29.29,0,0,0-.28.06,5.13,5.13,0,0,0-1,1.8,1.47,1.47,0,0,0,.34,1.38.6.6,0,0,0,.8.21,3.78,3.78,0,0,0,1.26-.9A1.42,1.42,0,0,0,55.7,145.31Z"/><path class="cls-1" d="M93.36,147.37c0-.8.09-1.6.15-2.39a1.58,1.58,0,0,0-.25-1c-.24-.37-.45-.77-.66-1.15a4.66,4.66,0,0,1-.26-.61.35.35,0,0,1,.16-.43.61.61,0,0,1,.38,0,.86.86,0,0,1,.53.49c.22.41.47.81.71,1.21a.24.24,0,0,0,.41.07c.33-.29.67-.57,1-.89s.74-.89,1.12-1.33a2.57,2.57,0,0,1,.29-.28c.24-.24.54-.17.81.08a.49.49,0,0,1,0,.68c-.64.72-1.29,1.43-2,2.14a6.41,6.41,0,0,1-.55.49,1.78,1.78,0,0,0-.69,1.35c0,.5-.05,1-.09,1.49a2.49,2.49,0,0,1-.14.72.41.41,0,0,1-.68.13A.7.7,0,0,1,93.36,147.37Z"/><path class="cls-1" d="M47.75,148.37a2.61,2.61,0,0,1-2.27-.94,2.2,2.2,0,0,1-.49-1.86,5.18,5.18,0,0,1,1.69-3.06,2.27,2.27,0,0,1,2.89-.15c.15.12.33.24.21.47a.49.49,0,0,1-.65.15l-.06-.06c-.42-.47-.89-.28-1.35-.1a.45.45,0,0,0-.14.1,4.38,4.38,0,0,0-1.63,3,1.49,1.49,0,0,0,2.14,1.54c.18-.07.34-.19.52-.26a1,1,0,0,1,.47-.11.59.59,0,0,1,.38.25.41.41,0,0,1-.09.37,2,2,0,0,1-1.29.67Z"/><path class="cls-1" d="M87.72,54.84c0-.2,0-.47-.07-.74l-.09-.74c0-.4.07-.73.43-.77s.53.2.61.63a5.54,5.54,0,0,1,.07.57c.1,1.09,0,1,1.11,1,.34,0,.67,0,1,0s.38-.09.34-.41-.16-.86-.23-1.3,0-.58.33-.65a.51.51,0,0,1,.7.38,10.44,10.44,0,0,1,.28,1.46c.12,1,.21,2,.32,3,0,.3.1.6.15.9a3.7,3.7,0,0,1,.07.57c0,.39-.31.57-.69.43a.71.71,0,0,1-.49-.61l-.21-1.72c0-.17,0-.33,0-.5-.09-.74-.21-.62-.73-.58s-.88,0-1.32.06-.37.08-.36.42,0,.66.06,1,.08.66.09,1-.17.52-.41.53a.59.59,0,0,1-.63-.41,4.64,4.64,0,0,1-.11-.65,10.91,10.91,0,0,0-.23-2.21A1.71,1.71,0,0,1,87.72,54.84Z"/><path class="cls-1" d="M117.61,47.07c0-.28.14-.74.18-1.2.06-.63.09-1.26.12-1.9,0-.19,0-.38,0-.57a.45.45,0,0,1,.49-.45,1.12,1.12,0,0,1,1,.49q.63.87,1.29,1.71c.25.33.52.64.79,1a2.34,2.34,0,0,0,.3.25A2,2,0,0,0,122,46c.27-1,.54-2,.8-2.95,0-.13,0-.27.1-.4a.57.57,0,0,1,.94-.24.46.46,0,0,1,.13.36,6.43,6.43,0,0,1-.22.71l-1,3.81a1.69,1.69,0,0,1-.05.24.57.57,0,0,1-.91.33,4.15,4.15,0,0,1-.68-.71c-.54-.67-1.06-1.35-1.58-2a2.62,2.62,0,0,0-.28-.3s-.13,0-.18.07a.25.25,0,0,0,0,.16c-.08.79-.17,1.58-.25,2.38a5.54,5.54,0,0,1-.07.57.42.42,0,0,1-.66.22C117.6,48,117.58,47.62,117.61,47.07Z"/><path class="cls-1" d="M83.58,48.71V47.39a.33.33,0,0,0-.37-.36c-.74.07-1.47.16-2.21.25-.2,0-.26.2-.29.36q-.12.73-.21,1.47c0,.24,0,.49,0,.74s-.15.45-.47.43-.36-.11-.38-.43a8,8,0,0,1,.22-2.13c0-.11.07-.21.08-.32A6,6,0,0,1,81,44.77a2.74,2.74,0,0,1,1-1A1.21,1.21,0,0,1,83.6,44a2.22,2.22,0,0,1,.49.75,7.68,7.68,0,0,1,.35,1.27,12,12,0,0,1,.16,3.78.86.86,0,0,1-.25.49.47.47,0,0,1-.76-.3c0-.43,0-.88,0-1.32Zm-2-2.42a10,10,0,0,1,1.21-.14c.72,0,.73-.07.5-.77a4,4,0,0,0-.31-.66.38.38,0,0,0-.62-.14,3,3,0,0,0-1.09,1.48c0,.13,0,.22.14.23Z"/><path class="cls-1" d="M118.69,51.05a5.56,5.56,0,0,1,.82.05.4.4,0,0,1,.37.38.41.41,0,0,1-.33.42c-.46.09-.93.12-1.4.18s-.92.12-1.38.2a.61.61,0,0,0-.5.58c-.08.49,0,.62.52.52s.74-.21,1.12-.29a.65.65,0,0,1,.39,0,.38.38,0,0,1,.06.67,6.94,6.94,0,0,1-1.07.41c-.29.09-.59.14-.88.21a.35.35,0,0,0-.3.43,5.07,5.07,0,0,0,.23,1,.81.81,0,0,0,1.39.34c.07,0,.11-.12.18-.17a.46.46,0,0,1,.67,0,.49.49,0,0,1,0,.73,3.16,3.16,0,0,1-.83.53,1.66,1.66,0,0,1-1.71-.25,2.47,2.47,0,0,1-1-1.85,5.46,5.46,0,0,1,0-1c.09-.68.22-1.36.32-2a.76.76,0,0,1,.55-.64,9.64,9.64,0,0,1,2.43-.45c.11,0,.22,0,.33,0Z"/><path class="cls-1" d="M112.39,46.45c.06-.38.11-.67.15-1s.2-.63-.06-.95c-.13-.16,0-.37.11-.53a1.89,1.89,0,0,1,2.19-.69,3.82,3.82,0,0,1,1.59,1.28.78.78,0,0,1,.14.29,2.79,2.79,0,0,1-2.14,3.7,1.67,1.67,0,0,1-1.72-1A7.57,7.57,0,0,1,112.39,46.45Zm1.15-.37c0,.25,0,.5,0,.75.1.9.65,1,1.33.55a1.27,1.27,0,0,0,.43-.49,1.84,1.84,0,0,0-.83-2.72c-.26-.15-.42-.09-.53.17A3.41,3.41,0,0,0,113.54,46.08Z"/><path class="cls-1" d="M87.22,46c0-.44,0-.88,0-1.32a.49.49,0,0,1,.78-.39.44.44,0,0,1,.23.41c0,.44,0,.88,0,1.32a4.3,4.3,0,0,0,.2,1.71,1.91,1.91,0,0,0,.86,1.07.58.58,0,0,0,.82-.09,1.63,1.63,0,0,0,.56-1,7.21,7.21,0,0,0,.12-2.62,3.77,3.77,0,0,1-.05-.82.61.61,0,0,1,.17-.36.51.51,0,0,1,.58-.2c.21.07.25.26.29.46a10,10,0,0,1,0,3.53,3,3,0,0,1-1.24,1.89,1.32,1.32,0,0,1-1.19.16,2.87,2.87,0,0,1-2.07-2.52c0-.41,0-.83-.06-1.24Z"/><path class="cls-1" d="M95.44,55.59a3.48,3.48,0,0,1,.7-1.9c.12-.18.27-.34.38-.53a.68.68,0,0,1,.76-.37,3.24,3.24,0,0,1,2.53,1.51A2.49,2.49,0,0,1,98.27,58,1,1,0,0,1,98,58,2.46,2.46,0,0,1,95.44,55.59Zm1.07,0a1.57,1.57,0,0,0,.34,1,1.27,1.27,0,0,0,1.33.45,1.54,1.54,0,0,0,.9-1.37,2.49,2.49,0,0,0-.49-1.38,1.34,1.34,0,0,0-.83-.5.69.69,0,0,0-.78.33A2.67,2.67,0,0,0,96.51,55.59Z"/><path class="cls-1" d="M111.12,51A2.4,2.4,0,0,1,113.19,52a.49.49,0,0,1,.12.3.85.85,0,0,1-.19.42.4.4,0,0,1-.38,0,3,3,0,0,1-.55-.47,1.45,1.45,0,0,0-1.82-.2.47.47,0,0,0-.15.76c.27.39.57.75.86,1.12a9,9,0,0,1,.53.73,1.73,1.73,0,0,1-1,2.63,2.26,2.26,0,0,1-2.33-.69.38.38,0,0,1-.09-.52.5.5,0,0,1,.66-.16,6.54,6.54,0,0,1,.52.4,1,1,0,0,0,1.09,0,.8.8,0,0,0,.3-1.21,12.62,12.62,0,0,0-.83-1.23c-.21-.29-.47-.54-.68-.83a.84.84,0,0,1,0-1.2A2.34,2.34,0,0,1,111.12,51Z"/><path class="cls-1" d="M104.57,42.79c.39,0,.77,0,1.15,0s.62.22.64.43-.26.45-.67.45-.83,0-1.24,0-.42.11-.4.47l.18,2.8a7.47,7.47,0,0,0,.2,1.88.52.52,0,0,1-.36.65.59.59,0,0,1-.77-.43c-.08-.54-.13-1.09-.17-1.64-.06-1-.1-2-.15-3.05a.67.67,0,0,0,0-.32.34.34,0,0,0-.24-.17c-.24,0-.49.08-.73.1a11,11,0,0,1-1.15,0,.38.38,0,0,1-.37-.38.38.38,0,0,1,.35-.4c.35-.07.71-.09,1.06-.13l2.71-.3Z"/><path class="cls-1" d="M106.84,54.25c-.15.7-.27,1.41-.47,2.09a2.19,2.19,0,0,1-.5.84,1.63,1.63,0,0,1-2.3.25,3.08,3.08,0,0,1-1.23-1.9,3.71,3.71,0,0,1,.08-2.21.45.45,0,0,1,.77-.24.46.46,0,0,1,.18.34,4.1,4.1,0,0,1-.08.57,3.8,3.8,0,0,0,.42,2.24c.2.35.45.67.89.63a.93.93,0,0,0,.8-.75,4.36,4.36,0,0,0,0-3.14.53.53,0,1,1,1-.35A6.79,6.79,0,0,1,106.84,54.25Z"/><path class="cls-1" d="M94.35,46.39a5,5,0,0,1,.72-2.29,1.36,1.36,0,0,1,1.48-.68,1.3,1.3,0,0,1,1.14,1c0,.14.07.27.09.41,0,.36-.09.59-.37.62s-.5-.1-.58-.44a4.17,4.17,0,0,0-.08-.49.4.4,0,0,0-.71-.17,1.25,1.25,0,0,0-.3.49,7,7,0,0,0-.25,1.29,2,2,0,0,0,1.53,2,1.31,1.31,0,0,0,.48,0c.18,0,.36-.14.54-.17a.38.38,0,0,1,.43.18.38.38,0,0,1,0,.46,1.19,1.19,0,0,1-1.16.51,3.42,3.42,0,0,1-2.64-1.77A6,6,0,0,1,94.35,46.39Z"/><path class="cls-1" d="M110.13,48.16c0,.31-.13.51-.33.56a.64.64,0,0,1-.69-.32,2.31,2.31,0,0,1-.18-.72c-.05-1.43-.09-2.86-.13-4.3a1.14,1.14,0,0,1,.08-.4.43.43,0,0,1,.78-.08,1.29,1.29,0,0,1,.19.61c0,.8,0,1.6.08,2.39s.1,1.32.16,2C110.1,48,110.12,48.1,110.13,48.16Z"/><path class="cls-1" d="M62.14,100.49c0,.8.07,1.6.11,2.39,0,.39-.11.65-.41.7a.67.67,0,0,1-.69-.47A6.23,6.23,0,0,1,61,102c0-.79,0-1.59.05-2.39,0,0,0-.12-.05-.13a.16.16,0,0,0-.15,0c-.18.18-.34.36-.51.54A5.54,5.54,0,0,1,59,101.12a.82.82,0,0,1-1.12-.15,6.78,6.78,0,0,1-1.15-1.6c-.11-.19-.2-.39-.3-.59a.2.2,0,0,0-.13-.09s-.08.07-.09.12c-.21.88-.43,1.76-.62,2.65-.08.32-.1.65-.16,1a.46.46,0,0,1-.43.42c-.26,0-.59-.23-.6-.47a4,4,0,0,1,0-.91c.21-1.16.46-2.32.66-3.49.1-.6.55-.85,1-1.13a.51.51,0,0,1,.7.26c.18.3.32.64.48,1,.3.59.57,1.19.9,1.76.22.39.36.4.73.16a6,6,0,0,0,1.73-1.87,4,4,0,0,1,.34-.56.6.6,0,0,1,1.06.14,2.89,2.89,0,0,1,.2,1c0,.61,0,1.21,0,1.82Z"/><path class="cls-1" d="M98.38,100.75c0-.44.09-.88.08-1.31a16.78,16.78,0,0,0-.13-1.73c0-.51,0-.65.5-.78a4.61,4.61,0,0,1,1-.17,2.09,2.09,0,0,1,1.9,3,.44.44,0,0,0,.07.57c.34.4.64.82,1,1.24s.48.71,1,.83.37.55,0,.77a.74.74,0,0,1-.92,0,8.1,8.1,0,0,1-.89-1c-.31-.39-.56-.82-.87-1.21s-.35-.34-.77-.15a.5.5,0,0,1-.14.08c-.54.13-.9.39-.82,1,0,0,0,.06,0,.08a.52.52,0,0,1-.47.41.6.6,0,0,1-.49-.38,1.84,1.84,0,0,1,0-.41c0-.28,0-.55,0-.83Zm2.54-2a5.61,5.61,0,0,0-.28-.71.79.79,0,0,0-.85-.37.34.34,0,0,0-.34.39c0,.3.08.6.12.9a.35.35,0,0,0,.3.34l.4.11C100.67,99.48,100.92,99.28,100.92,98.74Z"/><path class="cls-1" d="M78.37,100.75c0-.08.06-.35.09-.63,0-.46.09-.93.12-1.4a.91.91,0,0,0-.23-.76c-.29-.28-.19-.52.15-.74A2.24,2.24,0,0,1,80.63,97a2.57,2.57,0,0,1,1.5,1.56,1.22,1.22,0,0,1,0,.9.56.56,0,0,0,.19.72,2,2,0,0,1,.29.4,10.94,10.94,0,0,0,1.16,1.71.36.36,0,0,1,0,.46.44.44,0,0,1-.49.22,1.64,1.64,0,0,1-.56-.32,4,4,0,0,1-.49-.66c-.15-.24-.26-.49-.41-.73s-.24-.47-.44-.58-.43.18-.64.29a2.18,2.18,0,0,1-1,.25c-.34,0-.36,0-.32.38,0,.06,0,.11,0,.16a.4.4,0,0,1-.21.49.53.53,0,0,1-.66-.18A2,2,0,0,1,78.37,100.75Zm1.25-2.27c0,.7,0,.7.72.77.14,0,.27,0,.4.06.31,0,.46-.11.43-.42a1.28,1.28,0,0,0-.79-1.06c-.52-.23-.73-.09-.75.49A.81.81,0,0,0,79.62,98.48Zm.4,1.66-.16.14,0,0,.18-.12Z"/><path class="cls-1" d="M73.46,97.21a3.16,3.16,0,0,1,2.89,2.34A2,2,0,0,1,76,101.2a3.86,3.86,0,0,1-1.85,1.33,1.66,1.66,0,0,1-1.29-.07,2.53,2.53,0,0,1-1.46-2.55c0-.33.16-.64.24-1a2.17,2.17,0,0,0,.12-.55,1,1,0,0,1,.79-1A6.63,6.63,0,0,1,73.46,97.21Zm-1,2.91a1.94,1.94,0,0,0,.27,1,.93.93,0,0,0,1,.49,2.55,2.55,0,0,0,1.38-1,1.29,1.29,0,0,0,.19-.61,1.9,1.9,0,0,0-1.61-1.9.43.43,0,0,0-.37.1A3.15,3.15,0,0,0,72.45,100.12Z"/><path class="cls-1" d="M95.43,97.43c-.47,0-.94,0-1.4,0a.76.76,0,0,0-.56,1,.36.36,0,0,0,.28.1c.35-.06.7-.16,1-.23a1,1,0,0,1,.49,0,.51.51,0,0,1,.29.25.33.33,0,0,1-.11.44,2,2,0,0,1-.6.27c-.35.08-.7.12-1.05.2a.79.79,0,0,0-.54,1.21.44.44,0,0,0,.5.21,4.62,4.62,0,0,0,1.58-.45.62.62,0,0,1,.63,0,.37.37,0,0,1,.19.54.88.88,0,0,1-.55.48c-.52.16-1,.32-1.59.43a2,2,0,0,1-.81-.06,1.35,1.35,0,0,1-1.07-1.23c-.06-.38-.08-.76-.12-1.14,0-.05,0-.12,0-.16.43-.59.34-1.32.53-2a.82.82,0,0,1,.57-.64,4.61,4.61,0,0,1,3.23.19,1.07,1.07,0,0,1,.33.24.29.29,0,0,1,0,.22.24.24,0,0,1-.17.14c-.39,0-.77,0-1.16,0Z"/><path class="cls-1" d="M65.91,99.93v-1.4a1.55,1.55,0,0,0-.23-.86c-.2-.31-.09-.49.26-.62a.94.94,0,0,1,.16,0,5.3,5.3,0,0,1,3,.27,1.21,1.21,0,0,1,.76.81.75.75,0,0,1-.07.7,2.57,2.57,0,0,1-.61.66,18.84,18.84,0,0,1-1.84,1.08.57.57,0,0,0-.39.64c.06.52.12,1,.19,1.55s0,.74-.33.81-.51-.13-.67-.5a2,2,0,0,1-.16-.63c-.06-.82-.11-1.65-.16-2.47Zm1-1.16c0,.88,0,.89.79.44a8.93,8.93,0,0,0,.8-.57.63.63,0,0,0,.2-.26c0-.08,0-.25-.06-.27a3.46,3.46,0,0,0-.86-.28c-.82-.11-.93-.09-.87.78Z"/><path class="cls-1" d="M87.76,96.91c.55,0,1.1,0,1.65,0a1.15,1.15,0,0,1,.54.15.39.39,0,0,1,.21.49.47.47,0,0,1-.43.33,3.86,3.86,0,0,1-.9-.06c-.64-.11-.64.1-.61.61.06,1.07.06,2.15.07,3.22a.54.54,0,0,1,0,.25c-.05.15-.09.35-.3.33a.6.6,0,0,1-.42-.18,2,2,0,0,1-.36-1.07c0-.74,0-1.49,0-2.23-.06-1.06.1-1-1.09-1-.14,0-.28,0-.41,0a.84.84,0,0,1-.39-.11.44.44,0,0,1-.24-.49.38.38,0,0,1,.35-.3c.41-.05.82-.08,1.23-.1s.77,0,1.16,0Z"/><path class="cls-1" d="M51.17,100.81c0-.58.12-1.15.16-1.73s0-1.1.06-1.65a.47.47,0,0,1,.44-.5.52.52,0,0,1,.62.41,1.34,1.34,0,0,1,0,.4c-.06.91-.14,1.81-.18,2.72,0,.44,0,.88.06,1.32a2.81,2.81,0,0,1,0,.58.47.47,0,0,1-.72.28.76.76,0,0,1-.4-.67c0-.39,0-.77,0-1.16Z"/><path class="cls-1" d="M193.09,47.31c0,.58.09,1.18.12,1.79a.5.5,0,0,1-.46.57.53.53,0,0,1-.58-.47,2.72,2.72,0,0,1,0-.49c0-1.19,0-2.37,0-3.56,0-.47,0-.93,0-1.4a.77.77,0,0,1,.2-.6c.34-.39.74-.42,1,0s.58.81.86,1.22c.14.2.25.42.39.63.51.79.63.84,1.35.19a7.82,7.82,0,0,0,1.67-1.82.66.66,0,0,1,.61-.35.51.51,0,0,1,.57.48c.12.76.24,1.53.3,2.29.11,1.21.16,2.43.23,3.64a1,1,0,0,1,0,.24.52.52,0,0,1-.8.39.77.77,0,0,1-.35-.63c0-.49,0-1-.08-1.48-.05-1-.11-2-.17-3.06a.39.39,0,0,0-.07-.21.43.43,0,0,0-.28.09c-.66.66-1.32,1.33-2,2a.67.67,0,0,1-1.16-.06l-.28-.42-.52-.84a3.66,3.66,0,0,0-.26-.42.81.81,0,0,0-.24-.17,1,1,0,0,0-.09.21c0,.22,0,.44,0,.66Z"/><path class="cls-1" d="M231.76,51.11a3.06,3.06,0,0,1,2.6,1.36,2.34,2.34,0,0,1,.4,2.12.61.61,0,0,0,.17.66,3.46,3.46,0,0,0,1.69,1.25.94.94,0,0,1,.22.12.46.46,0,0,1,.21.57.49.49,0,0,1-.54.3,2.75,2.75,0,0,1-1.32-.63,10.2,10.2,0,0,1-.93-.93c-.28-.28-.32-.29-.72-.15a7.19,7.19,0,0,1-.79.24c-.32.08-.64.1-.66.57a.44.44,0,0,1-.48.37.77.77,0,0,1-.61-.49c0-.1,0-.22,0-.33,0-.27-.09-.53-.13-.8a1.4,1.4,0,0,1,0-.57c.31-.85-.05-1.69,0-2.54a1.15,1.15,0,0,0-.15-.37c-.16-.4,0-.64.38-.7A6,6,0,0,1,231.76,51.11Zm.19,1.72a5.69,5.69,0,0,0,.08.82.42.42,0,0,0,.23.29c.35.14.72.24,1.08.36s.44,0,.44-.29a1.92,1.92,0,0,0-1.56-1.92c-.21,0-.34.06-.33.25S231.93,52.67,232,52.83Zm.27,2a1.38,1.38,0,0,0-.13.22.17.17,0,0,0,.07.13,3.62,3.62,0,0,0,.46-.06s0-.11,0-.12Z"/><path class="cls-1" d="M215.59,53.16a2.43,2.43,0,0,1,.07-.39c.13-.41.29-.55.72-.55A5.68,5.68,0,0,1,220.82,54a3.94,3.94,0,0,1,.36.45,1.82,1.82,0,0,1-.1,2.3,6.14,6.14,0,0,1-3,2c-.26.08-.53.14-.8.21a.7.7,0,0,1-.9-.49,10.12,10.12,0,0,1-.71-3.45A18.18,18.18,0,0,0,215.59,53.16Zm1.62,3.34c0,.38,0,.6,0,.82,0,.48.25.6.72.46a2.5,2.5,0,0,0,.38-.15A6,6,0,0,0,220,56.36a1.23,1.23,0,0,0,.07-1.72,3.88,3.88,0,0,0-3-1.5c-.33,0-.42.11-.42.47s0,.94.06,1.4c0,.28,0,.55.31.72a.48.48,0,0,1,.18.51C217.22,56.38,217.21,56.52,217.21,56.5Z"/><path class="cls-1" d="M200.31,55.37c0-.64,0-1.27,0-1.91a.66.66,0,0,1,.4-.65,2.6,2.6,0,0,1,3.47,1.09,1.57,1.57,0,0,1,0,1.58.48.48,0,0,0,.1.66,7.57,7.57,0,0,1,.52.74c.18.3.29.64.68.79.2.07.18.4,0,.57a.79.79,0,0,1-1,.13,1.54,1.54,0,0,1-.61-.77,9,9,0,0,0-.44-.88.33.33,0,0,0-.5-.12,3.1,3.1,0,0,1-.51.27A1.78,1.78,0,0,1,202,57c-.18,0-.41-.12-.52.1s0,.32,0,.48a.59.59,0,0,1-.52.55.61.61,0,0,1-.59-.57c0-.22,0-.44,0-.66V55.37Zm1.11-1.12c0,.27,0,.62.14.78s.51.13.77.19a3.85,3.85,0,0,0,.49.08.38.38,0,0,0,.46-.35,1.28,1.28,0,0,0-.95-1.44C201.62,53.31,201.39,53.5,201.42,54.25Z"/><path class="cls-1" d="M227,53.18c-.5,0-1,0-1.49,0s-.47.11-.57.48a2.63,2.63,0,0,0-.07.49c0,.25.09.37.34.35.49,0,1-.09,1.47-.17a.91.91,0,0,1,.77.2.31.31,0,0,1,0,.5,3.05,3.05,0,0,1-.76.29c-.46.09-.93.11-1.39.17s-.46.16-.44.56a1.66,1.66,0,0,0,0,.32c.1.57.31.77.88.79a3.89,3.89,0,0,0,1.55-.22c.13-.05.25-.11.38-.15a.42.42,0,0,1,.51.18.39.39,0,0,1-.06.52,2,2,0,0,1-1.32.63,10.39,10.39,0,0,1-1.48,0,1.69,1.69,0,0,1-1.51-1.41,9.27,9.27,0,0,1,0-2.88,1.4,1.4,0,0,0,0-.88.34.34,0,0,1,.21-.47,2.9,2.9,0,0,1,.55-.17,12.07,12.07,0,0,1,3.55,0,.91.91,0,0,1,.45.19.44.44,0,0,1,.16.34.38.38,0,0,1-.28.24,8.19,8.19,0,0,1-1,0H227Z"/><path class="cls-1" d="M235.51,45.45c0-.77.07-1.38.12-2a5.27,5.27,0,0,1,.14-.64.58.58,0,0,1,.45-.44,8.67,8.67,0,0,1,.88-.21c.57-.09,1.14-.19,1.71-.24a3,3,0,0,1,.9.07.46.46,0,0,1,.38.47.53.53,0,0,1-.53.43c-.6.05-1.2.09-1.8.16a4.38,4.38,0,0,0-.8.17.53.53,0,0,0-.24.7.33.33,0,0,0,.27.14c.35,0,.71-.07,1.06-.11a4.6,4.6,0,0,1,.73-.11.46.46,0,0,1,.3.22.3.3,0,0,1-.11.43c-.43.18-.87.34-1.31.49a2.7,2.7,0,0,1-.41.06c-.56.09-.65.21-.59.76s.23.66.7.6,1.24-.25,1.85-.39c.22-.05.42-.15.64-.18a.53.53,0,0,1,.58.36.46.46,0,0,1-.26.55,9.62,9.62,0,0,1-3,.7,1.86,1.86,0,0,1-.57-.11,1.29,1.29,0,0,1-1-1.24C235.54,45.83,235.52,45.56,235.51,45.45Z"/><path class="cls-1" d="M210.92,56.08c-.52,0-1,.06-1.57.06a.63.63,0,0,0-.6.35c-.16.34-.34.68-.5,1a.56.56,0,0,1-.81.31.32.32,0,0,1-.21-.4,5.11,5.11,0,0,1,.28-.68c.59-1.09,1.17-2.18,1.78-3.26a4.84,4.84,0,0,1,.68-.83.51.51,0,0,1,.74,0,2.09,2.09,0,0,1,.46.56,10.9,10.9,0,0,1,1.26,3.2c.08.38.19.75.27,1.13,0,.1.07.24,0,.31a1.14,1.14,0,0,1-.36.42.4.4,0,0,1-.51-.15,1.73,1.73,0,0,1-.28-.58c-.12-.39-.21-.8-.3-1.2C211.23,56.1,211.12,56,210.92,56.08Zm-.95-.82.89-.19c-.11-.34-.23-.67-.35-1a.3.3,0,0,0,0-.08c-.11-.19-.27-.22-.37-.05-.21.35-.4.72-.58,1.08-.07.13,0,.2.15.23Z"/><path class="cls-1" d="M223.93,44.17a1.42,1.42,0,0,1,.36-1.3.65.65,0,0,1,.61-.32,5.68,5.68,0,0,1,3.47,1.34.67.67,0,0,1,0,1.13,3.88,3.88,0,0,1-1,.67c-.55.24-1.14.39-1.71.6s-.45.18-.42.66a3.64,3.64,0,0,1,0,.57.45.45,0,0,1-.35.49.56.56,0,0,1-.64-.26,1.06,1.06,0,0,1-.1-.3c0-.3-.1-.6-.12-.9C224,45.75,224,45,223.93,44.17Zm1.1.17c0,.27,0,.55.06.82a.22.22,0,0,0,.29.21,7.27,7.27,0,0,0,2-.82.18.18,0,0,0,0-.33,6.16,6.16,0,0,0-1.43-.61C225,43.43,225,43.46,225,44.34Z"/><path class="cls-1" d="M195.46,52.63l2.56-.08h.08a.68.68,0,0,1,.62.35c.07.15-.17.35-.49.47a4.55,4.55,0,0,1-1.47.12c-.74,0-.76,0-.74.72,0,.91.1,1.81.15,2.72,0,.27,0,.55,0,.83a.48.48,0,0,1-.34.5.49.49,0,0,1-.59-.2,1.3,1.3,0,0,1-.2-.6C195,56.74,195,56,195,55.31c0-.5-.06-1-.1-1.49,0-.25-.09-.31-.38-.32a8.28,8.28,0,0,0-2.21.24.82.82,0,0,1-.77-.14.35.35,0,0,1,.08-.61,2.36,2.36,0,0,1,.63-.17l3.21-.28Z"/><path class="cls-1" d="M201.2,45.11v-.83a1.86,1.86,0,0,1,0-.33.55.55,0,0,1,.5-.37.43.43,0,0,1,.41.35,4.53,4.53,0,0,1,.08.74c.06.63.07,1.27.18,1.89.07.38.07.85.54,1a1.59,1.59,0,0,0,.71-.88,3.15,3.15,0,0,0,.25-2.09,5,5,0,0,1-.1-.66.48.48,0,0,1,.44-.51.5.5,0,0,1,.59.34,4.42,4.42,0,0,1-.09,3,8.67,8.67,0,0,1-.47,1,.16.16,0,0,1,0,.07,1.56,1.56,0,0,1-1.45.8,1.46,1.46,0,0,1-1.24-1.09,10.81,10.81,0,0,1-.33-1.62,5.61,5.61,0,0,1,0-.82Z"/><path class="cls-1" d="M214.09,43.07l2.46-.21a5.53,5.53,0,0,1,.91,0A1.57,1.57,0,0,1,218,43a.33.33,0,0,1-.06.59,2.21,2.21,0,0,1-.72.11c-1,0-1,0-.93.94s0,1.76,0,2.64c0,.37-.18.6-.42.61a.7.7,0,0,1-.74-.53,1.4,1.4,0,0,1,0-.41c0-.44.07-.88.08-1.32s0-1,0-1.48c0-.2-.14-.27-.33-.27-.42,0-.83,0-1.24,0a1.79,1.79,0,0,1-.63-.17.37.37,0,0,1-.2-.41.34.34,0,0,1,.35-.3c.32,0,.66,0,1,0Z"/><path class="cls-1" d="M208.27,48.57l-.57,0a1,1,0,0,1-.89-.75,2.25,2.25,0,0,1-.15-.55,12.56,12.56,0,0,1,.19-3.62.47.47,0,0,1,.48-.37.5.5,0,0,1,.47.39,4.66,4.66,0,0,1,0,1,12.61,12.61,0,0,0-.06,2.3.78.78,0,0,0,.09.4.51.51,0,0,0,.3.22,1.35,1.35,0,0,0,.49,0l1.72-.2a2.91,2.91,0,0,1,.66,0,.36.36,0,0,1,.24.61.72.72,0,0,1-.24.22,1.38,1.38,0,0,1-.39.13Z"/><path class="cls-1" d="M231.54,48a1.46,1.46,0,0,1-1.62-1.28,4.62,4.62,0,0,1-.07-.65c0-.86,0-1.71,0-2.57a1.82,1.82,0,0,1,0-.33.5.5,0,0,1,.49-.46.55.55,0,0,1,.52.46,2.77,2.77,0,0,1,0,.41c0,.85.08,1.71.11,2.56a2.9,2.9,0,0,0,.06.41.35.35,0,0,0,.39.34c.33,0,.66,0,1-.07s.71-.12,1.06-.18a1.22,1.22,0,0,1,.33,0,.4.4,0,0,1,.25.64,1,1,0,0,1-.45.34C232.91,47.78,232.2,47.9,231.54,48Z"/><path class="cls-1" d="M222,45.62c0,.69.06,1.38.08,2.07a1.89,1.89,0,0,1,0,.41.46.46,0,0,1-.76.28,1.63,1.63,0,0,1-.35-.53,1.11,1.11,0,0,1,0-.41c0-1.29,0-2.59-.05-3.88,0-.11,0-.23,0-.33,0-.31.21-.51.44-.5a.61.61,0,0,1,.57.5c0,.13,0,.27,0,.41,0,.66,0,1.32.05,2Z"/><path class="cls-1" d="M239.31,51.44a2.41,2.41,0,0,1,2.32.07.52.52,0,0,1,.24.22.75.75,0,0,1,0,.47.4.4,0,0,1-.32.19,3.46,3.46,0,0,1-.7-.19,1.46,1.46,0,0,0-1.73.59.48.48,0,0,0,.2.76c.4.23.83.43,1.25.65a6.76,6.76,0,0,1,.79.43,1.73,1.73,0,0,1,.19,2.82,2.26,2.26,0,0,1-2.4.37.39.39,0,0,1-.31-.43.53.53,0,0,1,.53-.43c.22,0,.43.1.64.14a1,1,0,0,0,1-.43.8.8,0,0,0-.24-1.22,11,11,0,0,0-1.28-.75c-.32-.17-.66-.29-1-.46a.85.85,0,0,1-.49-1.1A2.33,2.33,0,0,1,239.31,51.44Z"/><path class="cls-1" d="M187.87,141.78a3.61,3.61,0,0,1-2.26,3.45,2.91,2.91,0,0,1-3.46-1,3.48,3.48,0,0,1-.61-3.12,9.64,9.64,0,0,1,1-2.54,2.19,2.19,0,0,1,2.67-.85,3.47,3.47,0,0,1,1.07.74,7.7,7.7,0,0,1,1.31,1.89A2.55,2.55,0,0,1,187.87,141.78Zm-1-.24a2.86,2.86,0,0,0-.25-.95,11.76,11.76,0,0,0-1.26-1.73,1.13,1.13,0,0,0-1.51-.15,2.1,2.1,0,0,0-.91,1.14,8.9,8.9,0,0,0-.49,2.16,2.63,2.63,0,0,0,.34,1.51,1.63,1.63,0,0,0,1.39.9,2.29,2.29,0,0,0,2-.82A3.11,3.11,0,0,0,186.85,141.54Z"/><path class="cls-1" d="M172.71,143a2.6,2.6,0,0,1,0-.36.54.54,0,0,0-.19-.59,20.65,20.65,0,0,1-2.25-2.84c-.26-.39-.5-.79-.75-1.19a.76.76,0,0,1-.11-.22c-.07-.25.16-.54.41-.47a1.25,1.25,0,0,1,.56.29,2.66,2.66,0,0,1,.47.68,19.39,19.39,0,0,0,2.31,3,2.5,2.5,0,0,0,.24.22.35.35,0,0,0,.46,0c.29-.21.59-.4.87-.63a25.85,25.85,0,0,0,2.47-2.55c.13-.14.24-.3.38-.43a.54.54,0,0,1,.69-.06.44.44,0,0,1,.18.63.64.64,0,0,1-.1.13c-.71.77-1.4,1.56-2.14,2.3-.44.45-1,.84-1.43,1.25-.1.09-.22.17-.32.27-.72.7-.79.45-.62,1.6s.26,2.3.38,3.45c0,.29-.07.48-.26.55a.58.58,0,0,1-.71-.27,1.5,1.5,0,0,1-.14-.47c-.08-.77-.14-1.53-.22-2.3S172.79,143.67,172.71,143Z"/><path class="cls-1" d="M197.5,140.06c0-.38-.07-.82-.1-1.26s.13-.61.37-.65a.64.64,0,0,1,.69.56,6.36,6.36,0,0,1,.1,1.07c0,.66,0,1.32-.07,2a3.21,3.21,0,0,1-.87,1.92,9.73,9.73,0,0,1-1.34,1.23,2.18,2.18,0,0,1-2.62.15,1.9,1.9,0,0,1-.5-.43,5.09,5.09,0,0,1-1-2.4,8.81,8.81,0,0,1,.21-3.43l.09-.32c.06-.21.17-.34.41-.31s.48.17.5.44a5.63,5.63,0,0,1,0,.58c0,.85-.11,1.7-.13,2.56a3.73,3.73,0,0,0,.59,2,1.11,1.11,0,0,0,1.33.53,1.05,1.05,0,0,0,.31-.12,3.73,3.73,0,0,0,2-2.92C197.47,140.89,197.48,140.51,197.5,140.06Z"/><path class="cls-1" d="M203.69,138.82v2.31c0,.32-.12.46-.42.5s-.57-.08-.63-.38a2.81,2.81,0,0,1-.06-.65c0-.61,0-1.21,0-1.82s0-1.26-.06-1.89a4.49,4.49,0,0,1,0-.9c.07-.38.45-.48.76-.22a.87.87,0,0,1,.27.75v2.3Z"/><path class="cls-1" d="M202.52,144.8a.61.61,0,0,1-.48.59.71.71,0,0,1-.72-.55.54.54,0,0,1,.47-.57A.68.68,0,0,1,202.52,144.8Z"/><path class="cls-1" d="M122.63,7.27a3.36,3.36,0,0,1,0,.55.44.44,0,0,1-.6.26.69.69,0,0,1-.42-.65c0-.8-.09-1.59-.12-2.39s0-1.38,0-2.07a.9.9,0,0,0-.08-.47c-.05-.07-.26,0-.39,0a.48.48,0,0,1-.26-.78l.17-.18a3.05,3.05,0,0,1,4.79.8,3.37,3.37,0,0,1,.43,2.23.91.91,0,0,0,.28.88,4.1,4.1,0,0,1,.82,1.34,2,2,0,0,0,1,1.19.33.33,0,0,1,.18.17c0,.14.12.33.06.45a.55.55,0,0,1-.38.26,1,1,0,0,1-.82-.3,3.37,3.37,0,0,1-.8-1.14c-.14-.3-.27-.61-.42-.9a2.55,2.55,0,0,0-.34-.47.26.26,0,0,0-.36-.06l-.57.34a2.87,2.87,0,0,1-1.75.37c-.34,0-.36,0-.35.34C122.62,7.08,122.62,7.16,122.63,7.27Zm-.2-4.39h0c0,.25,0,.5,0,.75s.08.41.39.38a4.18,4.18,0,0,1,2,.24c.19.08.3,0,.31-.23a2.42,2.42,0,0,0-.57-1.68,1.48,1.48,0,0,0-1.12-.62c-1-.06-1,0-1,.91Zm1,2.08c-.14,0-.36.07-.56.14a.33.33,0,0,0-.16.26.32.32,0,0,0,.17.25,1.41,1.41,0,0,0,1,0c.19-.07.52-.1.51-.34S124,5,123.8,5Z"/><path class="cls-1" d="M103.41,5.48V7.43c0,.14,0,.28,0,.42,0,.31-.21.51-.44.5a.52.52,0,0,1-.48-.49c0-.6,0-1.21,0-1.82,0-.8,0-1.6.1-2.39,0-.55.08-1.1.14-1.65a1.61,1.61,0,0,1,.15-.47c.18-.35.38-.4.74-.21a4.06,4.06,0,0,1,1.25,1.19c.42.55.8,1.12,1.2,1.68a4.17,4.17,0,0,0,.3.4.3.3,0,0,0,.5,0,5.91,5.91,0,0,0,1.58-2,6.62,6.62,0,0,0,.24-.62,2.64,2.64,0,0,1,.69-1,.56.56,0,0,1,1,.17,2.45,2.45,0,0,1,.09.32A16.68,16.68,0,0,1,111,5.65a13.67,13.67,0,0,0,.15,2.3.43.43,0,0,1-.28.54.57.57,0,0,1-.66-.18,1.21,1.21,0,0,1-.19-.54c0-.44,0-.88-.05-1.32-.09-1.21-.2-2.42-.3-3.63,0,0,0-.1,0-.15s-.14.09-.16.15a9.3,9.3,0,0,1-1.54,2.24,2.64,2.64,0,0,1-1.15.79.71.71,0,0,1-.89-.23c-.24-.31-.45-.63-.67-.94l-1.41-1.95s-.14-.06-.21-.07-.06.09-.06.14C103.5,3.69,103.46,4.57,103.41,5.48Z"/><path class="cls-1" d="M99.64,4.46c0,.2,0,.39,0,.58a.69.69,0,0,0,.16.53,3.51,3.51,0,0,1,.65,1.33A3.6,3.6,0,0,0,101,8a.49.49,0,0,1,0,.73.57.57,0,0,1-.8-.16,11.31,11.31,0,0,1-.64-1.25c-.12-.25-.17-.52-.27-.78s-.19-.22-.38-.08A3,3,0,0,1,98,7a2.57,2.57,0,0,1-1.23,0c-.23,0-.31.08-.24.29s.15.36.21.54a.41.41,0,0,1-.19.56.49.49,0,0,1-.6-.13A.75.75,0,0,1,95.76,8c-.26-.92-.54-1.85-.76-2.79a3.21,3.21,0,0,1,0-1.71,3,3,0,0,1,2-2A1.91,1.91,0,0,1,99.53,3c.07.49.1,1,.14,1.48Zm-1-.41c0-.29-.07-.63-.14-.95-.15-.63-.44-.81-1.08-.72a2.08,2.08,0,0,0-1.64,2.39.15.15,0,0,0,.25.11,2.7,2.7,0,0,1,2-.23,2.13,2.13,0,0,0,.25,0c.21,0,.3-.09.34-.27A3.48,3.48,0,0,0,98.69,4.05ZM97.4,5.51c-.15,0-.38.08-.61.15-.06,0-.14.13-.13.18s.09.21.17.23A1.23,1.23,0,0,0,98,5.88s.09-.11.08-.14a.41.41,0,0,0-.16-.16A3.33,3.33,0,0,0,97.4,5.51Z"/><path class="cls-1" d="M116.57,1.38h-1.74a4.87,4.87,0,0,0-.66,0c-.33.06-.4.16-.39.5s0,.94.06,1.4c0,.21.11.3.32.26a5.48,5.48,0,0,0,2-.48.36.36,0,0,1,.51.09.48.48,0,0,1,.07.61,1,1,0,0,1-.36.32,4.42,4.42,0,0,1-.78.25c-.38.08-.77.12-1.14.19s-.51.18-.51.61a7.81,7.81,0,0,0,0,1.08c.09.57.32.75.9.74a5.08,5.08,0,0,0,1.67-.43c.18-.06.35-.17.52-.23a.47.47,0,0,1,.58.2.44.44,0,0,1,0,.54.85.85,0,0,1-.35.33,9,9,0,0,1-2.29.64,1.84,1.84,0,0,1-2-1.64,2.9,2.9,0,0,1-.06-.66,1.13,1.13,0,0,0-.34-1,.34.34,0,0,1,0-.52.85.85,0,0,0,.21-.76c-.08-.71.07-1.43,0-2.14A.46.46,0,0,1,113,.93a2.18,2.18,0,0,1,.72-.38A6.45,6.45,0,0,1,115,.43c1.08,0,2.15,0,3.23,0a4,4,0,0,1,.49,0c.38,0,.58.21.58.47s-.2.42-.59.44l-1.57,0h-.58Z"/><path class="cls-1" d="M93.28,8.39a.49.49,0,0,1-.36.49.58.58,0,0,1-.63-.3,4.41,4.41,0,0,1-.16-.72c-.07-.52-.13-1-.2-1.56-.05-.34-.15-.42-.49-.37l-2.7.42a.45.45,0,0,0-.28.24c-.18.4-.32.82-.47,1.23s-.33.49-.6.42A.5.5,0,0,1,87,7.59a4.53,4.53,0,0,1,.32-.94c.63-1.29,1.27-2.57,1.93-3.84a3,3,0,0,1,1.24-1.19.79.79,0,0,1,1.14.3,3,3,0,0,1,.35.75c.27.93.55,1.85.76,2.79s.32,1.85.48,2.77C93.27,8.28,93.27,8.34,93.28,8.39ZM89.65,5.22,91.4,5a.23.23,0,0,0,.19-.31C91.4,4,91.21,3.38,91,2.76c-.06-.2-.21-.22-.37-.07A6.55,6.55,0,0,0,89.22,5c-.06.12,0,.2.16.22Z"/><path class="cls-1" d="M83.17,1.84h2.24a1,1,0,0,1,.76.25.39.39,0,0,1,.09.46c-.07.15-.17.29-.37.26a26.76,26.76,0,0,0-3.8,0l-.41,0a.28.28,0,0,0-.26.28v.08c.27,1.47-.1,1.36,1.45,1.25l1.81-.14a.84.84,0,0,1,.68.23.36.36,0,0,1,.13.44.68.68,0,0,1-.34.31,2.74,2.74,0,0,1-.58,0l-2.46.29a.26.26,0,0,0-.24.35c.11.46.23.91.35,1.36,0,.19.14.37.17.55a.47.47,0,0,1-.82.38,1.73,1.73,0,0,1-.28-.58,25.4,25.4,0,0,1-.78-4c0-.35-.05-.66-.49-.74-.09,0-.17-.13-.24-.21a.36.36,0,0,1,.13-.56A4.81,4.81,0,0,1,81,1.9c.72,0,1.44,0,2.15,0Z"/><path class="cls-2" d="M161.59,53.69c-1.21,0-2.42-.08-3.63-.1-3-.05-6.05,0-9.06.21-1.63.09-11.22.84-12.85,1-1.2.08-3.35.85-3.62-.8a17.72,17.72,0,0,1-.5-4,28.83,28.83,0,0,0-.14-3.21,12.16,12.16,0,0,1,0-1.35c0-.63.29-.84.91-.84s1.32,0,2-.05c1,0,1.94-.06,2.91,0,2.66.09,13.3-.42,16-.31a3.05,3.05,0,0,0,.52,0,23.68,23.68,0,0,1,4.45.31,28.1,28.1,0,0,0,3.31.14c1.84,0,3.67,0,5.5.13,1.55.14,3.11.21,4.66.28a11.47,11.47,0,0,0,1.76-.08c.54-.06.63-.17.66-.74,0-.34,0-.69,0-1,0-.65.08-1.31.17-2,.06-.45.31-.56.75-.42a2.06,2.06,0,0,1,.48.21c1.85,1.07,3.71,2.15,5.55,3.24.59.36,1.16.76,1.72,1.17a.89.89,0,0,1,.25,1.43,50.42,50.42,0,0,0-3,5.43c-.8,1.49-1.51,3-2.29,4.53a15.67,15.67,0,0,1-.85,1.42,2.29,2.29,0,0,1-.49.54.58.58,0,0,1-.93-.27,3.69,3.69,0,0,1-.1-1.32,8.61,8.61,0,0,0,0-2.38c-.18-1.27-.09-1.18-1.32-1.19-1,0-2.08.08-3.12.07-2.49,0-5-.06-7.47-.09l-2.07,0Z"/><path class="cls-2" d="M135.69,147.87l-3.63-.1c-2.95-.05-6.06,0-9.06.22-1.63.09-11.23.83-12.85.94-1.2.09-3.35.86-3.62-.79a17.87,17.87,0,0,1-.5-4,28.73,28.73,0,0,0-.14-3.21c0-.45,0-.9,0-1.35,0-.64.3-.84.92-.84s1.31,0,2-.06c1,0,1.94-.06,2.91,0,2.66.09,13.3-.42,16-.3.17,0,.35,0,.52,0a22.87,22.87,0,0,1,4.45.3,28.11,28.11,0,0,0,3.31.15c1.83,0,3.67-.05,5.5.12,1.55.15,3.11.22,4.66.29a13,13,0,0,0,1.76-.09c.54-.06.62-.16.66-.73,0-.35,0-.7,0-1,0-.66.08-1.31.17-2,.06-.45.31-.57.75-.43a2.06,2.06,0,0,1,.48.21c1.85,1.08,3.71,2.15,5.55,3.25.59.35,1.16.75,1.72,1.16a.89.89,0,0,1,.25,1.43,51.48,51.48,0,0,0-3,5.43c-.79,1.5-1.51,3-2.28,4.54a15.67,15.67,0,0,1-.85,1.42,2.24,2.24,0,0,1-.49.53.58.58,0,0,1-.93-.26,3.75,3.75,0,0,1-.1-1.33,8.62,8.62,0,0,0,0-2.38c-.18-1.27-.09-1.18-1.32-1.18-1,0-2.08.07-3.12.07-2.49,0-5-.06-7.47-.1l-2.08,0Z"/><path class="cls-2" d="M273,89.77c-1.95.35-4,.44-6.05.67-.65.07-1.29.19-1.94.3-.2,0-.32,0-.33-.21s0-.31,0-.47c0-.77-.07-1.55-.08-2.33,0-.43.16-2.36-.36-2.55s-.87.78-1.32,1.47c-1.75,2.74-3.34,5.57-5.12,8.28,0,.06-.05.12-.08.17a.91.91,0,0,0,.09,1.05,28.87,28.87,0,0,0,2.62,3.14c.9,1,1.81,2,2.74,3,.48.52,1,1,1.52,1.52,1.2,1.1.87-1.48.81-1.84-.15-.83-.09-1.71-.16-2.55a.29.29,0,0,1,.31-.31c5.14-.47,10,.83,14.86-1.39a20.17,20.17,0,0,0,9.47-9.29c3.16-6.33,3.49-15.84,2.16-22.74-1.29-6.66-6-12.54-11.73-16s-12.52-4.87-19.18-5.36c-2.5-.18-6.05-1.07-7.7,1-1.46,1.86-.83,6.87-.47,9a2.76,2.76,0,0,0,.47,1.32,3,3,0,0,0,2.52.7c6.45-.19,15.37-.14,20.2,4.14,3.46,3.06,4.28,5.85,5.33,10.35a27,27,0,0,1-1,13.12C279.16,87.87,276.27,89.18,273,89.77Z"/><path class="cls-2" d="M140.05,101.92c-4.19,0-8.38-.2-12.55.16a.29.29,0,0,0-.3.32c.06.83,0,1.72.14,2.54.07.37.39,3-.81,1.85-.53-.49-1-1-1.52-1.53-.92-1-1.83-2-2.72-3.06a26.93,26.93,0,0,1-2.61-3.15.91.91,0,0,1-.09-1s0-.11.08-.17c1.79-2.7,3.39-5.53,5.15-8.26.45-.69.88-1.63,1.33-1.46s.35,2.11.35,2.54c0,.78,0,1.56.07,2.34,0,.15,0,.31,0,.47s.13.24.34.2c.65-.1,1.29-.22,1.94-.29,5.54-.6,38.48-.31,44-1,1.67-.2,2,.07,2.08,1.59s.18,3,.29,4.54c.07,1,.53,2.57-.78,3.13a3.33,3.33,0,0,1-1.14.2C171.37,102,142,101.94,140.05,101.92Z"/><path class="cls-2" d="M19.85,141c1.95.35,4,.45,6,.68.65.07,1.3.19,1.94.3.21,0,.33,0,.34-.21l0-.47c0-.78.06-1.56.07-2.34,0-.42-.16-2.35.36-2.54s.88.78,1.32,1.47c1.76,2.74,3.34,5.57,5.12,8.28a.91.91,0,0,1,.09.17.92.92,0,0,1-.09,1.05,28.87,28.87,0,0,1-2.62,3.14c-.9,1-1.81,2-2.74,3-.49.53-1,1-1.53,1.53-1.2,1.1-.87-1.48-.8-1.84a24.07,24.07,0,0,0,.15-2.55.29.29,0,0,0-.3-.32c-5.14-.46-10,.84-14.86-1.38a20.19,20.19,0,0,1-9.48-9.29C-.26,133.36-.59,123.85.74,117c1.28-6.66,6-12.54,11.72-16S25,96.12,31.65,95.63c2.5-.18,6.05-1.07,7.69,1,1.47,1.85.83,6.87.48,9a2.81,2.81,0,0,1-.48,1.32,3,3,0,0,1-2.52.7c-6.45-.19-15.36-.14-20.2,4.14-3.46,3.06-4.28,5.85-5.32,10.35a27.05,27.05,0,0,0,.94,13.12C13.68,139.09,16.56,140.39,19.85,141Z"/><path class="cls-2" d="M47.1,45.7c1.95.35,4,.45,6,.67.65.08,1.29.19,1.93.3.21,0,.33,0,.34-.2s0-.32,0-.47c0-.78.06-1.56.07-2.34,0-.43-.16-2.35.37-2.54s.87.78,1.31,1.47c1.76,2.73,3.34,5.56,5.12,8.28a.91.91,0,0,1,.09.17.93.93,0,0,1-.09,1.05,27.85,27.85,0,0,1-2.62,3.13c-.9,1-1.81,2-2.74,3.05-.48.53-1,1-1.52,1.53-1.2,1.09-.87-1.48-.81-1.85.15-.83.09-1.71.16-2.55,0-.17-.11-.29-.31-.31-5.14-.46-10,.84-14.86-1.39a20.15,20.15,0,0,1-9.47-9.28C27,38.08,26.66,28.57,28,21.67,29.27,15,34,9.14,39.72,5.7S52.24.83,58.9.35c2.5-.19,6.05-1.08,7.7,1,1.46,1.86.82,6.88.47,9a2.87,2.87,0,0,1-.47,1.32,3.06,3.06,0,0,1-2.52.71c-6.45-.2-15.37-.14-20.2,4.13-3.47,3.07-4.29,5.85-5.33,10.36A27,27,0,0,0,39.5,40C40.93,43.81,43.82,45.11,47.1,45.7Z"/></g></g></svg>