<svg xmlns="http://www.w3.org/2000/svg" viewBox="0 0 53.87 580.72"><defs><style>.cls-1{fill:#252b68;}.cls-2{fill:#ec008c;}</style></defs><title>trad-model</title><g id="Layer_2" data-name="Layer 2"><g id="Layer_1-2" data-name="Layer 1"><path class="cls-1" d="M51.91,287.67c-.08.32-.15.64-.25.95a.31.31,0,0,0,.13.42,7.09,7.09,0,0,1,1.37,1.42,8,8,0,0,0,.56.6.5.5,0,0,1,.09.61.53.53,0,0,1-.65.19,2.23,2.23,0,0,1-.53-.38c-.19-.2-.34-.44-.51-.65a9,9,0,0,0-.75-.87c-.4-.39-.48-.37-1-.06a8.73,8.73,0,0,1-.8.42c-.35.18-.77.2-.94.7-.11.3-.54.27-.76,0a1.09,1.09,0,0,1-.2-.44c-.07-.46-.13-.93-.16-1.39-.05-.72-.07-1.43-.12-2.15a1.12,1.12,0,0,0-.15-.54c-.2-.3-.08-.51.12-.73a2.67,2.67,0,0,1,4.09.48A3.25,3.25,0,0,1,51.91,287.67Zm-2.48.77h.72c.4,0,.53-.1.63-.49a1.55,1.55,0,0,0-1.93-2c-.34.08-.48.22-.46.57,0,.55.1,1.09.15,1.64a.26.26,0,0,0,.29.22Zm-.63,1.27a3.86,3.86,0,0,0,.41-.2s.08-.11.11-.16-.11,0-.15,0a4.17,4.17,0,0,0-.44.19.11.11,0,0,0,0,.08A.58.58,0,0,0,48.8,289.71Z"/><path class="cls-1" d="M25.28,289.08v-1.16a1.12,1.12,0,0,0-.16-.63c-.17-.27-.09-.45.17-.6a.91.91,0,0,1,.22-.11,3.36,3.36,0,0,1,3.26.64,2.3,2.3,0,0,1,.65,1.81,1.15,1.15,0,0,1-.05.41.79.79,0,0,0,.3.93,3,3,0,0,1,.77,1.26,1.42,1.42,0,0,0,.62.84c.21.11.2.28.06.49a.71.71,0,0,1-1.23.07,5.19,5.19,0,0,1-.42-.89c-.17-.37-.32-.76-.51-1.12s-.28-.27-.47-.11a3.41,3.41,0,0,1-1.58.86c-.09,0-.19.18-.22.3s-.21.39-.47.38a.56.56,0,0,1-.51-.36,4.67,4.67,0,0,1-.18-.64A9.46,9.46,0,0,1,25.28,289.08Zm2.23.32c.07,0,.29,0,.5.09s.33,0,.33-.23a4.69,4.69,0,0,0-.07-1.06,1.13,1.13,0,0,0-.41-.58,1.85,1.85,0,0,0-1.24-.31.31.31,0,0,0-.32.31c0,.33,0,.66,0,1,0,.77,0,.7.71.77Zm-.37.89a1.23,1.23,0,0,0-.37,0c-.09,0-.22.1-.23.18a.59.59,0,0,0,.07.37c0,.05.21,0,.3,0a4.56,4.56,0,0,0,.56-.33.16.16,0,0,0,.05-.14s-.06-.08-.1-.09A2,2,0,0,0,27.14,290.29Z"/><path class="cls-1" d="M3.29,287.91H2.07c-.33,0-.4,0-.44.35s-.07.66-.1,1,.06.4.38.37a4.38,4.38,0,0,0,1.67-.42l.21-.12a.6.6,0,0,1,.63.28.38.38,0,0,1-.18.5,4.18,4.18,0,0,1-.89.4c-.37.11-.76.14-1.14.22a4.89,4.89,0,0,0-.64.14.38.38,0,0,0-.22.21c-.09.46-.17.92-.22,1.39,0,.22.12.34.34.38a3.91,3.91,0,0,0,1.63-.22c.18-.05.36-.14.55-.18a.77.77,0,0,1,.4,0c.12,0,.27.15.29.25a.54.54,0,0,1-.13.43,1.55,1.55,0,0,1-.58.31,16.43,16.43,0,0,1-1.69.37,2.44,2.44,0,0,1-.89-.1,1.27,1.27,0,0,1-1-1.62,25.28,25.28,0,0,0,.49-3.35,5.63,5.63,0,0,0,0-.58.9.9,0,0,1,1-1c.28,0,.55.07.82.07H4.46a2.34,2.34,0,0,1,.64.08c.16.05.31.19.24.37a.94.94,0,0,1-.31.35s-.16,0-.24,0Z"/><path class="cls-1" d="M43.41,286.48c-.35,0-.74,0-1.12.07-.67.09-.78.22-.85.88,0,.26.05.38.29.36a3.85,3.85,0,0,0,1.77-.33.57.57,0,0,1,.31-.07.46.46,0,0,1,.41.36.42.42,0,0,1-.19.5,2.87,2.87,0,0,1-.7.23c-.54.1-1.09.16-1.63.25s-.6.2-.61.71a2,2,0,0,0,0,.49.46.46,0,0,0,.38.39,2.91,2.91,0,0,0,.65.06,5.38,5.38,0,0,0,1.78-.32.79.79,0,0,1,.72,0,.42.42,0,0,1,.08.73,2.17,2.17,0,0,1-.68.3,8.26,8.26,0,0,1-2.62.21A1.43,1.43,0,0,1,40,289.88a6.58,6.58,0,0,1,.08-1.4c.1-.59.3-1.17.41-1.77a1,1,0,0,1,.77-.87,5.69,5.69,0,0,1,2.78-.12.84.84,0,0,1,.61.38c.09.15,0,.37-.15.38Z"/><path class="cls-1" d="M10.68,287.42c-.06.17-.12.47-.24.75a17.81,17.81,0,0,1-.81,1.71.67.67,0,0,0,0,.83c.36.49.7,1,1,1.48a5.09,5.09,0,0,1,.34.47.4.4,0,0,1-.13.52.54.54,0,0,1-.45.08,2.22,2.22,0,0,1-.6-.54c-.31-.39-.56-.82-.85-1.22-.13-.19-.24-.18-.37,0s-.43.64-.61,1a3.94,3.94,0,0,0-.25.68c-.12.38-.34.57-.63.52a.68.68,0,0,1-.53-.81,3.39,3.39,0,0,1,.31-.67c.34-.57.69-1.13,1.06-1.68a.57.57,0,0,0,0-.68c-.32-.55-.61-1.11-.9-1.67a2.49,2.49,0,0,1-.26-.61.42.42,0,0,1,.2-.3.68.68,0,0,1,.79.29l.75,1.28c.15.25.28.26.39,0,.25-.58.49-1.16.73-1.75.15-.37.39-.47.7-.3S10.7,287.09,10.68,287.42Z"/><path class="cls-1" d="M18.65,289.9a4.28,4.28,0,0,1,.42-1.89,3.27,3.27,0,0,0,.4-.89c0-.3.34-.41.62-.47a2.53,2.53,0,0,1,2.71,1.14,3.91,3.91,0,0,1,.56,2.21,1.8,1.8,0,0,1-.84,1.53,6.66,6.66,0,0,1-1.25.63,1.82,1.82,0,0,1-2.17-.75A2.45,2.45,0,0,1,18.65,289.9Zm1.07-.2a1.77,1.77,0,0,0,.35,1.3.66.66,0,0,0,.58.27,1.65,1.65,0,0,0,1.61-1.38,2.32,2.32,0,0,0-.72-2.1,1.91,1.91,0,0,0-.34-.24.53.53,0,0,0-.73.15A3.2,3.2,0,0,0,19.72,289.7Z"/><path class="cls-1" d="M14.77,286.45a4.35,4.35,0,0,1,2.15.49,1.35,1.35,0,0,1,.67.81,1.08,1.08,0,0,1-.18,1,4.13,4.13,0,0,1-1.43,1.1,2.55,2.55,0,0,1-.54.22c-.76.21-.7.26-.66,1.07,0,.44.11.88.13,1.32a.48.48,0,0,1-.37.56.63.63,0,0,1-.62-.31,1.27,1.27,0,0,1-.13-.47c0-.47-.06-.94-.08-1.41l-.15-3.39c0-.14,0-.27,0-.41a.4.4,0,0,1,.33-.42Zm.65.88h-.36c-.36,0-.44.1-.41.44s.07.44.07.66c0,1.12.16,1,.91.53a4,4,0,0,0,.75-.63.46.46,0,0,0-.19-.79A4.62,4.62,0,0,0,15.42,287.33Z"/><path class="cls-1" d="M35.31,286c.67,0,1.2,0,1.72.09a1.71,1.71,0,0,1,.69.23.35.35,0,0,1,0,.61,1.44,1.44,0,0,1-.89.1c-.3,0-.6-.09-.9-.1s-.39.08-.42.38a1.82,1.82,0,0,0,0,.33,25.59,25.59,0,0,0,.46,3,1.8,1.8,0,0,0,.16.38.38.38,0,0,1-.1.51.44.44,0,0,1-.53.08.85.85,0,0,1-.52-.51c-.06-.21-.12-.43-.16-.64a17.35,17.35,0,0,1-.36-3c0-.51-.05-.55-.59-.51s-.88.09-1.32.13q-.33,0-.66,0a.55.55,0,0,1-.51-.36.36.36,0,0,1,.17-.49.89.89,0,0,1,.32-.08Z"/><path class="cls-1" d="M13.87,481.45c.07-1.1.15-2.2.22-3.3a1.07,1.07,0,0,1,.24-.68.49.49,0,0,1,.73-.1,2.27,2.27,0,0,1,.37.44c.26.36.49.74.76,1.08s.55.51,1.06.23a11.42,11.42,0,0,0,1.05-.65L20,477.19a.65.65,0,0,1,1.1.33c.16.7.23,1.41.32,2.12,0,.36,0,.72.06,1.08a1.51,1.51,0,0,0,.2.95.39.39,0,0,1,.06.24.62.62,0,0,1-.42.64.61.61,0,0,1-.67-.37,2.73,2.73,0,0,1-.18-.8c-.07-.77-.11-1.54-.17-2.31,0-.14,0-.28,0-.42s-.14-.35-.36-.2l-.41.29c-.77.53-1.55,1-2.32,1.58a.75.75,0,0,1-1-.1c-.3-.27-.57-.59-.86-.89,0,0-.11-.08-.13-.07s-.12.11-.12.17c-.08.76-.15,1.53-.21,2.3,0,.14,0,.28,0,.42,0,.34-.17.5-.42.51a.59.59,0,0,1-.61-.55,1.82,1.82,0,0,1,0-.33c0-.11,0-.22,0-.33Z"/><path class="cls-1" d="M43.59,482.9a1.17,1.17,0,0,1-.36-.16,7.79,7.79,0,0,1-.66-.62l-2.35-2.46c-.17-.18-.25-.16-.34,0l-1,2.21a1.78,1.78,0,0,1-.23.43.52.52,0,0,1-.64.23.59.59,0,0,1-.28-.71c.07-.2.18-.4.27-.6.28-.6.58-1.19.81-1.81a9.16,9.16,0,0,0,.3-1.28c0-.13.05-.27.1-.4s.16-.38.38-.4a.49.49,0,0,1,.53.32,6.28,6.28,0,0,0,1.76,2.35c.36.41.77.79,1.16,1.18.17.17.26.16.37-.05a8.67,8.67,0,0,0,.73-2.28,13.48,13.48,0,0,1,.36-1.35,1.19,1.19,0,0,1,.68-.69.67.67,0,0,1,.63,0c.22.12.32.39.14.55a2.84,2.84,0,0,0-.77,1.71,12.37,12.37,0,0,1-.78,2.6c-.12.28-.2.57-.32.85A.5.5,0,0,1,43.59,482.9Z"/><path class="cls-1" d="M30.06,482.53a.48.48,0,0,1-.43-.59,4.5,4.5,0,0,1,.44-1c.79-1.2,1.61-2.37,2.43-3.55a.62.62,0,0,1,1.12,0,11.17,11.17,0,0,1,.68,1.22,2.24,2.24,0,0,1,.21.54c.06.32.47.35.51.6s-.15.52-.12.77c.05.49.19,1,.29,1.46.05.21.12.43.15.64a.54.54,0,0,1-.34.6.57.57,0,0,1-.58-.25,1.35,1.35,0,0,1-.17-.45c-.12-.57-.23-1.14-.36-1.7-.07-.32-.15-.37-.46-.34-.52,0-1,.09-1.56.12a.86.86,0,0,0-.75.44,4.19,4.19,0,0,0-.57,1.09A.46.46,0,0,1,30.06,482.53Zm2.65-2.89c1,0,.86-.06.64-.77a1.52,1.52,0,0,0-.18-.36c-.06-.1-.16-.18-.26-.06-.24.3-.47.61-.7.92a.14.14,0,0,0,.1.24C32.48,479.64,32.64,479.63,32.71,479.64Z"/><path class="cls-1" d="M26,476.93a5.16,5.16,0,0,1,1.94.34,3.39,3.39,0,0,1,.66.33,1,1,0,0,1,.35,1.5,2.18,2.18,0,0,1-.88.85c-.53.29-1.06.59-1.61.84a.63.63,0,0,0-.42.71,3.75,3.75,0,0,1,0,.82.66.66,0,0,1-.23.4.44.44,0,0,1-.54-.05A.78.78,0,0,1,25,482c0-.63-.1-1.25,0-1.89a7.46,7.46,0,0,0-.15-2.62c-.1-.35,0-.54.38-.58S25.76,476.93,26,476.93Zm0,1.82c0,.28.06.61.11.93,0,.05.14.13.17.11a4.89,4.89,0,0,0,1.65-1.07c.26-.28.21-.5-.14-.63a3.33,3.33,0,0,0-.87-.25C26,477.74,25.94,477.67,26,478.75Z"/><path class="cls-1" d="M7.39,480.65a2.78,2.78,0,0,1,.1-.6,6.28,6.28,0,0,1,1.35-2.26.63.63,0,0,1,.95-.14c.54.33,1.07.69,1.58,1.05a2.21,2.21,0,0,1,.75,1,1.48,1.48,0,0,1,0,1.2A3.71,3.71,0,0,1,9.71,483a1.36,1.36,0,0,1-1.31-.27A2.71,2.71,0,0,1,7.39,480.65Zm3.85-.56a3,3,0,0,0-.25-.55,3.42,3.42,0,0,0-1.3-1,.29.29,0,0,0-.27.06,5.25,5.25,0,0,0-1,1.8,1.46,1.46,0,0,0,.34,1.38.6.6,0,0,0,.8.21,3.64,3.64,0,0,0,1.26-.9A1.44,1.44,0,0,0,11.24,480.09Z"/><path class="cls-1" d="M48.89,482.14c0-.79.09-1.59.15-2.39a1.61,1.61,0,0,0-.25-1c-.24-.37-.44-.76-.65-1.15a3.56,3.56,0,0,1-.27-.6.37.37,0,0,1,.16-.44.55.55,0,0,1,.38,0,.86.86,0,0,1,.53.49c.23.41.47.81.71,1.21a.24.24,0,0,0,.41.07c.33-.3.67-.58,1-.9s.74-.88,1.12-1.32a4,4,0,0,1,.29-.29c.25-.23.54-.17.81.09a.48.48,0,0,1,0,.67l-2,2.14c-.17.18-.37.33-.56.5a1.76,1.76,0,0,0-.69,1.35c0,.49,0,1-.09,1.48a2.55,2.55,0,0,1-.14.73.41.41,0,0,1-.68.12A.69.69,0,0,1,48.89,482.14Z"/><path class="cls-1" d="M3.28,483.15A2.64,2.64,0,0,1,1,482.2a2.19,2.19,0,0,1-.49-1.86,5.21,5.21,0,0,1,1.69-3.06,2.29,2.29,0,0,1,2.89-.15c.15.13.33.25.21.47a.48.48,0,0,1-.65.15.17.17,0,0,1-.06-.06c-.42-.46-.89-.28-1.35-.09a.67.67,0,0,0-.14.09,4.4,4.4,0,0,0-1.63,3,1.5,1.5,0,0,0,2.14,1.55c.18-.07.34-.19.52-.26a.94.94,0,0,1,.48-.11.61.61,0,0,1,.38.25.45.45,0,0,1-.1.37,1.94,1.94,0,0,1-1.29.67Z"/><path class="cls-1" d="M12.9,103.42c0-.19,0-.47-.07-.74l-.09-.74c-.05-.4.07-.72.43-.77s.53.2.61.63a5.73,5.73,0,0,1,.07.58c.1,1.09,0,1,1.11,1,.33,0,.67,0,1,0s.38-.1.33-.41-.15-.87-.22-1.3,0-.58.33-.66a.52.52,0,0,1,.7.39,11.42,11.42,0,0,1,.28,1.46c.12,1,.21,2,.32,3,0,.3.1.6.15.9a3.7,3.7,0,0,1,.07.57c0,.4-.31.57-.69.44a.72.72,0,0,1-.49-.61l-.21-1.73c0-.16,0-.33,0-.49-.09-.75-.21-.63-.73-.58s-.88,0-1.32.06-.37.08-.36.41,0,.66.06,1,.08.66.09,1a.47.47,0,0,1-.41.53.61.61,0,0,1-.64-.41c0-.22-.07-.44-.1-.66a10.39,10.39,0,0,0-.24-2.21A1.79,1.79,0,0,1,12.9,103.42Z"/><path class="cls-1" d="M42.79,95.66c0-.28.13-.74.18-1.21.06-.63.08-1.26.12-1.89,0-.19,0-.39,0-.58a.46.46,0,0,1,.49-.45,1.12,1.12,0,0,1,1,.49c.42.58.85,1.15,1.29,1.72.25.32.52.64.79,1a3.5,3.5,0,0,0,.3.24,1.76,1.76,0,0,0,.17-.37c.27-1,.54-2,.8-3,0-.13,0-.27.1-.4A.57.57,0,0,1,49,91a.53.53,0,0,1,.13.36,6.43,6.43,0,0,1-.22.71l-1.05,3.82a2,2,0,0,1,0,.24.56.56,0,0,1-.91.32,3.53,3.53,0,0,1-.68-.71c-.54-.66-1.06-1.34-1.58-2a1.61,1.61,0,0,0-.28-.3s-.13,0-.18.07,0,.1,0,.15c-.09.79-.17,1.59-.25,2.38a5.22,5.22,0,0,1-.07.57.42.42,0,0,1-.66.23C42.78,96.56,42.76,96.21,42.79,95.66Z"/><path class="cls-1" d="M8.76,97.3c0-.44,0-.88,0-1.33a.32.32,0,0,0-.36-.36c-.74.07-1.47.16-2.21.25-.2,0-.26.2-.29.36-.08.49-.15,1-.22,1.47,0,.25,0,.5,0,.74s-.15.45-.47.44-.36-.12-.38-.44A8.47,8.47,0,0,1,5,96.3,1.92,1.92,0,0,0,5.08,96a6,6,0,0,1,1.11-2.62,2.59,2.59,0,0,1,1-1,1.21,1.21,0,0,1,1.58.22,2.43,2.43,0,0,1,.49.75,8,8,0,0,1,.35,1.27,12.05,12.05,0,0,1,.16,3.79.86.86,0,0,1-.25.49.47.47,0,0,1-.76-.3c0-.44,0-.88,0-1.32Zm-2-2.43a10.37,10.37,0,0,1,1.22-.14c.72,0,.73-.07.5-.76a3.72,3.72,0,0,0-.31-.67.38.38,0,0,0-.62-.14,2.86,2.86,0,0,0-1.09,1.49c0,.12,0,.21.14.22Z"/><path class="cls-1" d="M43.87,99.63c.27,0,.55,0,.82.05a.4.4,0,0,1,.37.39.4.4,0,0,1-.34.41c-.45.09-.92.13-1.39.19l-1.38.19a.63.63,0,0,0-.5.59c-.08.48,0,.61.52.52s.74-.21,1.12-.3a.74.74,0,0,1,.39,0,.39.39,0,0,1,.06.68,6.89,6.89,0,0,1-1.07.4c-.29.09-.59.14-.89.21a.36.36,0,0,0-.29.43,4.57,4.57,0,0,0,.23,1,.81.81,0,0,0,1.39.34c.07,0,.11-.13.18-.18a.45.45,0,0,1,.66,0,.48.48,0,0,1,0,.73,2.89,2.89,0,0,1-.83.52,1.64,1.64,0,0,1-1.71-.25,2.45,2.45,0,0,1-1-1.84,5.57,5.57,0,0,1,0-1c.09-.68.22-1.35.32-2a.75.75,0,0,1,.55-.64,8.83,8.83,0,0,1,2.43-.45c.11,0,.22,0,.33,0Z"/><path class="cls-1" d="M37.57,95c.06-.37.11-.67.15-1s.2-.62-.06-.94c-.13-.16,0-.37.11-.53A1.86,1.86,0,0,1,40,91.9a3.8,3.8,0,0,1,1.59,1.27,1.38,1.38,0,0,1,.14.3,2.78,2.78,0,0,1-2.14,3.69,1.67,1.67,0,0,1-1.73-1A9.47,9.47,0,0,1,37.57,95Zm1.14-.36c0,.25,0,.5,0,.74.1.91.65,1,1.33.56a1.55,1.55,0,0,0,.43-.49,1.84,1.84,0,0,0-.83-2.72c-.26-.15-.42-.1-.53.16A3.59,3.59,0,0,0,38.71,94.67Z"/><path class="cls-1" d="M12.4,94.59c0-.44,0-.89,0-1.32a.49.49,0,0,1,.78-.4.42.42,0,0,1,.22.42l0,1.32a4.32,4.32,0,0,0,.2,1.71,2,2,0,0,0,.86,1.07.59.59,0,0,0,.82-.1,1.61,1.61,0,0,0,.56-1,7.5,7.5,0,0,0,.12-2.63,3.73,3.73,0,0,1,0-.82.69.69,0,0,1,.16-.36.54.54,0,0,1,.59-.2c.21.08.25.26.28.46a9.79,9.79,0,0,1,0,3.54,3.07,3.07,0,0,1-1.24,1.88,1.26,1.26,0,0,1-1.19.16,2.86,2.86,0,0,1-2.07-2.52c-.05-.41,0-.82-.06-1.23Z"/><path class="cls-1" d="M20.62,104.18a3.51,3.51,0,0,1,.7-1.91c.12-.17.27-.34.38-.53a.67.67,0,0,1,.76-.36,3.2,3.2,0,0,1,2.52,1.5,2.48,2.48,0,0,1-1.53,3.67,1.11,1.11,0,0,1-.25,0A2.46,2.46,0,0,1,20.62,104.18Zm1.07,0a1.61,1.61,0,0,0,.34,1,1.24,1.24,0,0,0,1.33.44,1.51,1.51,0,0,0,.9-1.36,2.47,2.47,0,0,0-.5-1.38,1.21,1.21,0,0,0-.82-.5.69.69,0,0,0-.78.32A2.6,2.6,0,0,0,21.69,104.18Z"/><path class="cls-1" d="M36.3,99.55a2.42,2.42,0,0,1,2.07,1.06.55.55,0,0,1,.12.3.85.85,0,0,1-.19.42.43.43,0,0,1-.38,0,3.57,3.57,0,0,1-.55-.48,1.47,1.47,0,0,0-1.82-.2.48.48,0,0,0-.15.77c.27.38.57.74.86,1.12a7.54,7.54,0,0,1,.53.73,1.74,1.74,0,0,1-1,2.63,2.27,2.27,0,0,1-2.33-.7.38.38,0,0,1-.09-.52.5.5,0,0,1,.66-.16c.19.11.34.28.52.4a1,1,0,0,0,1.08,0,.79.79,0,0,0,.31-1.2,12.62,12.62,0,0,0-.83-1.23c-.21-.29-.47-.55-.68-.84a.85.85,0,0,1,0-1.2A2.37,2.37,0,0,1,36.3,99.55Z"/><path class="cls-1" d="M29.75,91.38c.38,0,.77,0,1.15,0s.62.21.64.42-.27.45-.67.45-.83,0-1.24,0-.42.1-.4.46c.06.94.11,1.87.18,2.8a7.42,7.42,0,0,0,.2,1.88.52.52,0,0,1-.36.65.58.58,0,0,1-.77-.42c-.09-.54-.13-1.09-.17-1.64-.06-1-.1-2-.15-3a.91.91,0,0,0,0-.33c-.05-.07-.16-.17-.24-.16-.24,0-.49.08-.73.09a8.84,8.84,0,0,1-1.15,0,.39.39,0,0,1-.37-.39.39.39,0,0,1,.35-.4c.35-.06.71-.09,1.06-.13l2.7-.3Z"/><path class="cls-1" d="M32,102.84c-.15.69-.27,1.4-.47,2.09a2.13,2.13,0,0,1-.51.83,1.62,1.62,0,0,1-2.29.26,3.13,3.13,0,0,1-1.23-1.91,3.67,3.67,0,0,1,.08-2.2.45.45,0,0,1,.77-.25.46.46,0,0,1,.18.34,3.72,3.72,0,0,1-.08.57,3.78,3.78,0,0,0,.42,2.24c.2.35.45.67.89.64a.92.92,0,0,0,.79-.75,4.33,4.33,0,0,0,.06-3.15.51.51,0,0,1,.6-.7.48.48,0,0,1,.41.36A6.68,6.68,0,0,1,32,102.84Z"/><path class="cls-1" d="M19.53,95a5.09,5.09,0,0,1,.72-2.29A1.35,1.35,0,0,1,21.73,92a1.29,1.29,0,0,1,1.14,1c0,.13.07.27.09.4.05.37-.09.6-.37.63a.5.5,0,0,1-.58-.45,3.7,3.7,0,0,0-.08-.48.4.4,0,0,0-.71-.17,1.22,1.22,0,0,0-.3.48,7.34,7.34,0,0,0-.25,1.29,2,2,0,0,0,1.52,2,1.11,1.11,0,0,0,.48,0c.19,0,.36-.13.55-.17a.4.4,0,0,1,.43.18.41.41,0,0,1,0,.47,1.21,1.21,0,0,1-1.16.5,3.37,3.37,0,0,1-2.64-1.77A5.67,5.67,0,0,1,19.53,95Z"/><path class="cls-1" d="M35.31,96.74a.53.53,0,0,1-.33.57.65.65,0,0,1-.7-.33,2.52,2.52,0,0,1-.17-.72c0-1.43-.09-2.86-.13-4.29a1.1,1.1,0,0,1,.08-.4.43.43,0,0,1,.78-.09,1.45,1.45,0,0,1,.19.61c0,.8,0,1.6.08,2.4s.1,1.32.16,2C35.28,96.57,35.3,96.68,35.31,96.74Z"/><path class="cls-1" d="M11.46,384.89c0,.79.07,1.59.11,2.39,0,.38-.11.64-.4.69a.65.65,0,0,1-.7-.46,6.4,6.4,0,0,1-.11-1.15c0-.8,0-1.6.06-2.4,0,0,0-.12-.06-.13a.16.16,0,0,0-.15,0c-.17.17-.34.36-.51.54a5.62,5.62,0,0,1-1.42,1.11.8.8,0,0,1-1.12-.15A6.69,6.69,0,0,1,6,383.77c-.1-.2-.19-.4-.3-.59a.15.15,0,0,0-.12-.09s-.09.07-.1.11c-.21.88-.42,1.77-.62,2.65-.07.32-.09.66-.16,1a.48.48,0,0,1-.43.43.66.66,0,0,1-.6-.48,3.86,3.86,0,0,1,0-.9c.21-1.17.46-2.33.66-3.49.1-.6.56-.86,1-1.14a.52.52,0,0,1,.7.26c.19.31.32.64.48,1,.3.59.58,1.19.9,1.76.23.4.36.41.74.16a5.89,5.89,0,0,0,1.72-1.86c.12-.19.21-.4.34-.57a.6.6,0,0,1,1.06.15,2.85,2.85,0,0,1,.21,1c0,.6,0,1.21,0,1.82Z"/><path class="cls-1" d="M47.7,385.14c0-.43.09-.87.08-1.31s-.06-1.15-.12-1.72,0-.65.49-.78a4.71,4.71,0,0,1,1.05-.18,2.1,2.1,0,0,1,1.9,3,.44.44,0,0,0,.06.57c.34.4.65.83,1,1.24a1.85,1.85,0,0,0,1,.84c.36.09.37.54,0,.77a.72.72,0,0,1-.91,0,8.21,8.21,0,0,1-.9-1c-.31-.38-.56-.82-.87-1.2s-.35-.35-.76-.15c-.05,0-.1.07-.15.08-.54.13-.9.39-.81,1a.31.31,0,0,1,0,.08.55.55,0,0,1-.46.41.57.57,0,0,1-.49-.39,1.84,1.84,0,0,1-.05-.41v-.82Zm2.54-2a5.58,5.58,0,0,0-.28-.7.78.78,0,0,0-.85-.38.36.36,0,0,0-.34.39c0,.3.08.6.12.9a.37.37,0,0,0,.3.35c.14,0,.27.08.4.1C50,383.88,50.24,383.68,50.24,383.13Z"/><path class="cls-1" d="M27.7,385.15c0-.09.05-.36.08-.63,0-.47.09-.93.13-1.4a.87.87,0,0,0-.24-.76c-.28-.28-.18-.53.15-.74a2.28,2.28,0,0,1,2.13-.24,2.59,2.59,0,0,1,1.5,1.57,1.15,1.15,0,0,1,0,.89.58.58,0,0,0,.19.73,1.68,1.68,0,0,1,.3.39,9.84,9.84,0,0,0,1.15,1.71.36.36,0,0,1,.05.46.42.42,0,0,1-.5.22,1.37,1.37,0,0,1-.56-.32,4,4,0,0,1-.49-.66c-.15-.23-.26-.49-.4-.72s-.25-.48-.45-.58-.43.18-.64.28a1.94,1.94,0,0,1-1,.25c-.34,0-.35,0-.32.39l0,.16a.4.4,0,0,1-.21.49.55.55,0,0,1-.66-.18A2,2,0,0,1,27.7,385.15Zm1.24-2.28c0,.71,0,.71.72.77.14,0,.27.05.41.06.3,0,.46-.1.42-.42a1.24,1.24,0,0,0-.79-1c-.52-.24-.72-.1-.75.48C29,382.77,28.94,382.82,28.94,382.87Zm.41,1.67-.16.13,0,.06a1.09,1.09,0,0,1,.17-.13Z"/><path class="cls-1" d="M22.78,381.6a3.18,3.18,0,0,1,2.89,2.34,2,2,0,0,1-.33,1.65,3.77,3.77,0,0,1-1.85,1.34,1.59,1.59,0,0,1-1.28-.08,2.51,2.51,0,0,1-1.46-2.55,8.26,8.26,0,0,1,.24-.95,3.73,3.73,0,0,0,.12-.56,1,1,0,0,1,.78-1A6.93,6.93,0,0,1,22.78,381.6Zm-1,2.92a2,2,0,0,0,.27,1,1,1,0,0,0,1,.49,2.56,2.56,0,0,0,1.38-1,1.22,1.22,0,0,0,.19-.62,1.89,1.89,0,0,0-1.6-1.9.49.49,0,0,0-.37.1A3.19,3.19,0,0,0,21.77,384.52Z"/><path class="cls-1" d="M44.75,381.83c-.46,0-.93,0-1.4,0a.75.75,0,0,0-.55,1c0,.07.19.12.27.1.36-.06.7-.16,1-.23a1.17,1.17,0,0,1,.49,0,.58.58,0,0,1,.3.26.35.35,0,0,1-.12.44,1.89,1.89,0,0,1-.6.26c-.34.09-.7.13-1,.2a.8.8,0,0,0-.54,1.21.43.43,0,0,0,.5.21,4.55,4.55,0,0,0,1.58-.45.64.64,0,0,1,.63,0,.37.37,0,0,1,.19.55.87.87,0,0,1-.54.47,15.12,15.12,0,0,1-1.6.43,2,2,0,0,1-.81-.06A1.35,1.35,0,0,1,41.48,385c0-.38-.08-.76-.11-1.15a.22.22,0,0,1,0-.16,5.44,5.44,0,0,0,.53-2,.84.84,0,0,1,.58-.64,4.64,4.64,0,0,1,3.22.19,1,1,0,0,1,.33.24.3.3,0,0,1,0,.23.24.24,0,0,1-.17.14H44.75Z"/><path class="cls-1" d="M15.23,384.32v-1.4a1.58,1.58,0,0,0-.22-.86c-.2-.31-.1-.49.26-.61l.15-.05a5.31,5.31,0,0,1,3,.28,1.23,1.23,0,0,1,.77.8.77.77,0,0,1-.08.71,2.72,2.72,0,0,1-.6.66c-.6.39-1.22.75-1.85,1.08-.29.15-.43.32-.39.63.06.52.12,1,.19,1.55s0,.75-.33.82-.51-.13-.67-.5a2.31,2.31,0,0,1-.16-.64c-.06-.82-.11-1.64-.16-2.46Zm1.06-1.15c0,.88,0,.88.78.43a7.29,7.29,0,0,0,.8-.57.6.6,0,0,0,.2-.25c0-.09,0-.26-.06-.28a3.74,3.74,0,0,0-.86-.27c-.81-.11-.93-.1-.87.77A1,1,0,0,0,16.29,383.17Z"/><path class="cls-1" d="M37.08,381.3c.55,0,1.1,0,1.65,0a1.26,1.26,0,0,1,.54.16.38.38,0,0,1,.21.48.44.44,0,0,1-.43.33,4.49,4.49,0,0,1-.9,0c-.63-.11-.64.1-.61.61.07,1.07.06,2.14.08,3.22a1,1,0,0,1,0,.24c-.05.16-.1.35-.3.34a.57.57,0,0,1-.42-.18,1.94,1.94,0,0,1-.37-1.07c0-.75,0-1.49,0-2.24-.06-1,.1-1-1.09-1a3,3,0,0,1-.41,0,1,1,0,0,1-.39-.12.43.43,0,0,1-.24-.48.37.37,0,0,1,.35-.3c.41-.05.82-.09,1.24-.1s.77,0,1.15,0Z"/><path class="cls-1" d="M.49,385.2c.05-.57.12-1.15.16-1.72s0-1.11.06-1.66a.48.48,0,0,1,.44-.5.55.55,0,0,1,.63.41,1.87,1.87,0,0,1,0,.41c-.06.9-.15,1.81-.19,2.72,0,.44,0,.88.06,1.32a2.18,2.18,0,0,1,0,.57.46.46,0,0,1-.71.29.74.74,0,0,1-.4-.68v-1.15Z"/><path class="cls-1" d="M2.93,191.19c0,.58.09,1.19.11,1.79a.48.48,0,0,1-.45.57.52.52,0,0,1-.58-.47,2,2,0,0,1,0-.49c0-1.18,0-2.37,0-3.56,0-.46,0-.93,0-1.4a.84.84,0,0,1,.21-.6c.34-.39.73-.42,1,0s.58.81.86,1.22c.14.2.25.43.39.63.52.8.63.84,1.36.19a7.82,7.82,0,0,0,1.67-1.82.62.62,0,0,1,.61-.34.51.51,0,0,1,.57.48c.11.76.24,1.52.3,2.29.1,1.21.15,2.42.23,3.63,0,.08,0,.17,0,.25a.52.52,0,0,1-.8.38.75.75,0,0,1-.35-.62c0-.5-.06-1-.08-1.49-.06-1-.11-2-.17-3.06a.71.71,0,0,0-.07-.21.55.55,0,0,0-.29.09c-.66.66-1.31,1.33-2,2a.68.68,0,0,1-1.17-.06,3.62,3.62,0,0,1-.27-.41c-.18-.28-.35-.57-.52-.85a3.74,3.74,0,0,0-.27-.42,1.06,1.06,0,0,0-.23-.17,1,1,0,0,0-.09.21,4.89,4.89,0,0,0,0,.66C2.92,190.12,2.93,190.64,2.93,191.19Z"/><path class="cls-1" d="M41.59,195a3.07,3.07,0,0,1,2.61,1.37,2.28,2.28,0,0,1,.39,2.11.63.63,0,0,0,.17.66,3.44,3.44,0,0,0,1.7,1.26.55.55,0,0,1,.21.12.44.44,0,0,1,.21.56.47.47,0,0,1-.53.3,2.73,2.73,0,0,1-1.33-.62c-.33-.28-.62-.62-.93-.93s-.32-.3-.72-.16c-.25.09-.52.18-.78.25s-.64.1-.67.56a.45.45,0,0,1-.48.38.77.77,0,0,1-.6-.5c0-.1,0-.22,0-.32,0-.27-.09-.54-.12-.81a1.25,1.25,0,0,1,0-.57,7.41,7.41,0,0,0,0-2.53c0-.13-.09-.25-.14-.38-.17-.39,0-.64.37-.7A6.13,6.13,0,0,1,41.59,195Zm.19,1.72c0,.28,0,.55.08.82a.45.45,0,0,0,.23.29c.36.14.72.25,1.09.36s.43,0,.44-.28A1.93,1.93,0,0,0,42.05,196c-.2,0-.33.06-.32.26S41.77,196.55,41.78,196.71Zm.28,2a1,1,0,0,0-.14.21s0,.14.08.14a3.5,3.5,0,0,0,.45-.07s0-.11,0-.12Z"/><path class="cls-1" d="M25.42,197a3.62,3.62,0,0,1,.08-.39.63.63,0,0,1,.71-.55,5.71,5.71,0,0,1,4.45,1.79,3,3,0,0,1,.35.45,1.82,1.82,0,0,1-.1,2.3,6,6,0,0,1-3,2c-.26.08-.53.14-.79.21a.71.71,0,0,1-.91-.48,9.92,9.92,0,0,1-.7-3.45A15.9,15.9,0,0,0,25.42,197Zm1.63,3.34c0,.38,0,.6,0,.82.05.48.24.61.72.47a3.08,3.08,0,0,0,.38-.16,5.91,5.91,0,0,0,1.71-1.27,1.23,1.23,0,0,0,.08-1.72,3.85,3.85,0,0,0-3-1.49c-.32,0-.42.1-.41.46s0,.94.06,1.41c0,.27,0,.54.3.71s.2.32.19.52A2.09,2.09,0,0,0,27.05,200.38Z"/><path class="cls-1" d="M10.15,199.25c0-.64,0-1.27,0-1.9a.65.65,0,0,1,.41-.65A2.57,2.57,0,0,1,14,197.79a1.57,1.57,0,0,1,0,1.58.48.48,0,0,0,.1.65,6.17,6.17,0,0,1,.52.74c.19.3.29.65.68.79.21.07.19.4,0,.57a.8.8,0,0,1-1,.13,1.68,1.68,0,0,1-.61-.76,7.36,7.36,0,0,0-.44-.89.32.32,0,0,0-.49-.12,4.29,4.29,0,0,1-.51.28,2.69,2.69,0,0,1-.55.17c-.18,0-.41-.12-.52.09s0,.32,0,.48a.61.61,0,0,1-.52.56.62.62,0,0,1-.59-.58,4.85,4.85,0,0,1,0-.66v-1.57Zm1.1-1.12c0,.27,0,.62.15.78s.5.13.76.19a4.53,4.53,0,0,0,.49.08.39.39,0,0,0,.47-.35,1.28,1.28,0,0,0-1-1.44C11.45,197.19,11.22,197.38,11.25,198.13Z"/><path class="cls-1" d="M36.85,197.06c-.5,0-1,0-1.49,0s-.48.12-.57.48a2.63,2.63,0,0,0-.07.49c0,.25.08.37.33.35.5,0,1-.09,1.48-.17a.92.92,0,0,1,.77.2.31.31,0,0,1,0,.5,2.54,2.54,0,0,1-.75.29c-.46.09-.93.11-1.4.17s-.45.16-.44.56c0,.11,0,.22,0,.33.1.56.32.76.89.78a3.86,3.86,0,0,0,1.54-.21c.13-.05.26-.11.39-.15a.39.39,0,0,1,.5.17.39.39,0,0,1-.06.52,1.94,1.94,0,0,1-1.31.63,12.3,12.3,0,0,1-1.49,0,1.71,1.71,0,0,1-1.51-1.41,10,10,0,0,1,0-2.89,1.33,1.33,0,0,0,0-.88c-.1-.2,0-.38.22-.47a2.69,2.69,0,0,1,.55-.17,12,12,0,0,1,3.54,0,1,1,0,0,1,.45.19.41.41,0,0,1,.16.34.41.41,0,0,1-.28.25c-.32,0-.66,0-1,0h-.49Z"/><path class="cls-1" d="M45.35,189.33c0-.77.06-1.37.11-2a4.8,4.8,0,0,1,.15-.63.58.58,0,0,1,.44-.45c.29-.08.59-.15.88-.2.57-.1,1.14-.19,1.72-.25a3.35,3.35,0,0,1,.89.07.46.46,0,0,1,.38.48.52.52,0,0,1-.52.42c-.6.05-1.21.09-1.81.16a3.7,3.7,0,0,0-.8.18.52.52,0,0,0-.24.69.37.37,0,0,0,.27.15c.36,0,.71-.07,1.06-.12a6.45,6.45,0,0,1,.73-.11.46.46,0,0,1,.31.22.3.3,0,0,1-.12.43c-.43.19-.87.34-1.31.49a2.57,2.57,0,0,1-.4.06c-.57.09-.66.21-.6.76s.23.66.71.6,1.23-.25,1.85-.39c.21,0,.42-.14.63-.18a.53.53,0,0,1,.58.36.46.46,0,0,1-.26.55,9.29,9.29,0,0,1-3,.7,1.8,1.8,0,0,1-.56-.11,1.29,1.29,0,0,1-1-1.24C45.38,189.72,45.35,189.44,45.35,189.33Z"/><path class="cls-1" d="M20.75,200c-.52,0-1,.06-1.56.07a.59.59,0,0,0-.6.34l-.51,1a.55.55,0,0,1-.81.3.31.31,0,0,1-.2-.4,3.61,3.61,0,0,1,.28-.68c.58-1.09,1.16-2.18,1.78-3.25a4.43,4.43,0,0,1,.67-.83.51.51,0,0,1,.74-.06A2,2,0,0,1,21,197a11.24,11.24,0,0,1,1.26,3.21c.08.37.18.74.27,1.12a.59.59,0,0,1,0,.32,1.22,1.22,0,0,1-.37.41.39.39,0,0,1-.51-.15,1.63,1.63,0,0,1-.27-.58c-.12-.39-.21-.8-.3-1.2C21.06,200,21,199.89,20.75,200Zm-.94-.81.89-.2c-.12-.34-.23-.67-.35-1a.43.43,0,0,0,0-.07c-.11-.2-.27-.23-.38,0-.21.35-.4.71-.58,1.08-.06.12,0,.2.15.22Z"/><path class="cls-1" d="M33.76,188.05a1.45,1.45,0,0,1,.36-1.29.66.66,0,0,1,.62-.33,5.66,5.66,0,0,1,3.46,1.35.67.67,0,0,1,0,1.13,4,4,0,0,1-1,.66c-.56.24-1.14.4-1.71.6s-.45.18-.42.66c0,.19,0,.38,0,.58a.47.47,0,0,1-.35.49.59.59,0,0,1-.65-.26,1.24,1.24,0,0,1-.1-.31c0-.3-.1-.6-.12-.9C33.83,189.63,33.8,188.84,33.76,188.05Zm1.1.17c0,.28,0,.55.06.82a.22.22,0,0,0,.29.21,7.34,7.34,0,0,0,2-.82.18.18,0,0,0,0-.33,6.76,6.76,0,0,0-1.42-.61C34.85,187.32,34.82,187.34,34.86,188.22Z"/><path class="cls-1" d="M5.3,196.51l2.55-.08h.09a.69.69,0,0,1,.61.35c.07.15-.16.36-.48.47a4.62,4.62,0,0,1-1.48.12c-.74,0-.76,0-.73.72,0,.91.1,1.82.15,2.72,0,.28,0,.55,0,.83a.47.47,0,0,1-.34.5.51.51,0,0,1-.59-.19,1.47,1.47,0,0,1-.2-.61c0-.72,0-1.43-.08-2.15,0-.5,0-1-.09-1.48,0-.25-.1-.32-.38-.32a8.6,8.6,0,0,0-2.21.23.79.79,0,0,1-.78-.14.35.35,0,0,1,.08-.61,2.33,2.33,0,0,1,.64-.17c1.06-.1,2.13-.18,3.2-.27Z"/><path class="cls-1" d="M11,189c0-.28,0-.55,0-.83a1.24,1.24,0,0,1,0-.33.52.52,0,0,1,.5-.36.42.42,0,0,1,.41.34c0,.24,0,.49.08.74a17,17,0,0,0,.18,1.89c.07.38.07.85.54,1a1.54,1.54,0,0,0,.7-.88,3.21,3.21,0,0,0,.26-2.09,5.13,5.13,0,0,1-.1-.65.48.48,0,0,1,.44-.52.5.5,0,0,1,.58.35,4.36,4.36,0,0,1-.08,3c-.13.33-.31.64-.47,1a.43.43,0,0,1,0,.07,1.55,1.55,0,0,1-1.45.8,1.48,1.48,0,0,1-1.25-1.08,10.09,10.09,0,0,1-.32-1.62,5.73,5.73,0,0,1,0-.83Z"/><path class="cls-1" d="M23.92,187l2.47-.2a4.51,4.51,0,0,1,.9,0,1.29,1.29,0,0,1,.54.19.33.33,0,0,1,0,.59,2.57,2.57,0,0,1-.73.1c-1,0-.95,0-.92.94s0,1.76,0,2.64c0,.37-.17.6-.42.62a.72.72,0,0,1-.74-.54,1.85,1.85,0,0,1,0-.41c0-.44.07-.87.08-1.31s0-1,0-1.48c0-.2-.15-.28-.34-.28-.41,0-.83,0-1.24,0a1.69,1.69,0,0,1-.62-.17.38.38,0,0,1,.14-.71c.33,0,.66,0,1,0Z"/><path class="cls-1" d="M18.11,192.45a4.1,4.1,0,0,1-.57,0,1,1,0,0,1-.9-.75,3.44,3.44,0,0,1-.15-.55,13.24,13.24,0,0,1,.19-3.61.49.49,0,0,1,.48-.38c.21,0,.46.19.47.4a4.59,4.59,0,0,1,0,1,11.06,11.06,0,0,0-.06,2.3.87.87,0,0,0,.08.4.56.56,0,0,0,.31.23,1.64,1.64,0,0,0,.49,0c.57-.06,1.14-.14,1.72-.19a2.36,2.36,0,0,1,.65,0,.36.36,0,0,1,.24.61.72.72,0,0,1-.24.22,1.28,1.28,0,0,1-.39.13Z"/><path class="cls-1" d="M41.38,191.9a1.45,1.45,0,0,1-1.62-1.27,3,3,0,0,1-.07-.66c0-.86,0-1.71,0-2.57,0-.11,0-.22,0-.33a.48.48,0,0,1,.5-.45.52.52,0,0,1,.51.45c0,.13,0,.27,0,.41,0,.85.07,1.71.11,2.56,0,.14,0,.28,0,.41a.36.36,0,0,0,.4.34c.33,0,.66,0,1-.07s.7-.12,1.06-.18a1.15,1.15,0,0,1,.32,0,.4.4,0,0,1,.25.64.94.94,0,0,1-.44.34C42.74,191.66,42,191.78,41.38,191.9Z"/><path class="cls-1" d="M31.83,189.5l.09,2.07a1.88,1.88,0,0,1,0,.41.46.46,0,0,1-.75.29,1.48,1.48,0,0,1-.35-.54,1.1,1.1,0,0,1,0-.41c0-1.29,0-2.59-.05-3.88,0-.11,0-.22,0-.33,0-.31.21-.51.45-.49a.61.61,0,0,1,.57.49c0,.14,0,.27,0,.41l.06,2Z"/><path class="cls-1" d="M49.14,195.32a2.41,2.41,0,0,1,2.32.08.5.5,0,0,1,.24.21.84.84,0,0,1,0,.47.42.42,0,0,1-.33.19,3.64,3.64,0,0,1-.7-.19,1.43,1.43,0,0,0-1.72.6.47.47,0,0,0,.19.76c.41.23.83.42,1.25.64a7.67,7.67,0,0,1,.8.43,1.73,1.73,0,0,1,.19,2.82,2.26,2.26,0,0,1-2.41.37c-.19-.07-.34-.2-.3-.43a.51.51,0,0,1,.53-.43c.21,0,.42.11.64.14a1,1,0,0,0,1-.43.8.8,0,0,0-.25-1.22,11.59,11.59,0,0,0-1.28-.75c-.31-.17-.65-.29-1-.46a.85.85,0,0,1-.49-1.1A2.37,2.37,0,0,1,49.14,195.32Z"/><path class="cls-1" d="M25,574.43a3.62,3.62,0,0,1-2.26,3.46,2.92,2.92,0,0,1-3.46-1,3.44,3.44,0,0,1-.6-3.12,9.42,9.42,0,0,1,.95-2.53,2.2,2.2,0,0,1,2.67-.86,3.34,3.34,0,0,1,1.07.75A7.55,7.55,0,0,1,24.7,573,2.57,2.57,0,0,1,25,574.43Zm-1-.24a3.07,3.07,0,0,0-.24-1,12.6,12.6,0,0,0-1.27-1.73,1.14,1.14,0,0,0-1.51-.15,2.18,2.18,0,0,0-.91,1.14,9.35,9.35,0,0,0-.48,2.17,2.55,2.55,0,0,0,.33,1.51,1.65,1.65,0,0,0,1.4.89,2.31,2.31,0,0,0,2-.82A3.07,3.07,0,0,0,24,574.19Z"/><path class="cls-1" d="M9.86,575.62a1.19,1.19,0,0,1,0-.36.58.58,0,0,0-.19-.59,19.23,19.23,0,0,1-2.25-2.84c-.27-.39-.51-.79-.76-1.18a1.07,1.07,0,0,1-.1-.22c-.07-.26.15-.55.4-.48a1.26,1.26,0,0,1,.57.3,2.58,2.58,0,0,1,.46.67,19.39,19.39,0,0,0,2.31,3,1.79,1.79,0,0,0,.25.22.34.34,0,0,0,.45,0,10.68,10.68,0,0,0,.87-.63A25.85,25.85,0,0,0,14.37,571c.13-.14.25-.3.39-.43a.54.54,0,0,1,.68-.06.45.45,0,0,1,.19.63l-.1.14c-.71.76-1.41,1.55-2.14,2.3-.45.44-1,.83-1.44,1.24-.1.09-.21.17-.31.27-.72.7-.79.46-.63,1.6s.27,2.3.39,3.45a.48.48,0,0,1-.27.55.57.57,0,0,1-.7-.27,1.29,1.29,0,0,1-.15-.47c-.08-.76-.14-1.53-.22-2.3S9.93,576.33,9.86,575.62Z"/><path class="cls-1" d="M34.64,572.71c0-.38-.07-.82-.1-1.26s.13-.61.37-.65a.65.65,0,0,1,.69.56,6.36,6.36,0,0,1,.11,1.07c0,.66,0,1.32-.08,2a3.16,3.16,0,0,1-.87,1.92,10.26,10.26,0,0,1-1.33,1.23,2.19,2.19,0,0,1-2.63.15,2.07,2.07,0,0,1-.5-.43,5,5,0,0,1-1-2.39,8.85,8.85,0,0,1,.2-3.44l.09-.32a.36.36,0,0,1,.42-.31c.31,0,.48.17.49.45a5.44,5.44,0,0,1,0,.57c0,.85-.11,1.71-.12,2.56a3.72,3.72,0,0,0,.58,2,1.1,1.1,0,0,0,1.33.53,1,1,0,0,0,.31-.11,3.8,3.8,0,0,0,2.05-2.93C34.62,573.54,34.62,573.16,34.64,572.71Z"/><path class="cls-1" d="M40.83,571.47v2.31c0,.32-.12.47-.41.5s-.57-.08-.64-.38a4.62,4.62,0,0,1-.06-.65c0-.61,0-1.21,0-1.81s-.06-1.27-.07-1.9a3.88,3.88,0,0,1,0-.9c.06-.38.45-.47.75-.22a.88.88,0,0,1,.28.75c0,.77,0,1.53,0,2.3Z"/><path class="cls-1" d="M39.66,577.46a.6.6,0,0,1-.48.58.72.72,0,0,1-.72-.55.55.55,0,0,1,.48-.57A.69.69,0,0,1,39.66,577.46Z"/><path class="cls-2" d="M24.21,150.22c.13-1.2.27-2.4.39-3.61.29-2.94.43-6,.51-9.05,0-1.63.06-11.25.07-12.88,0-1.21-.58-3.41,1.09-3.54a17.33,17.33,0,0,1,4-.19,31.2,31.2,0,0,0,3.21.12,12.22,12.22,0,0,1,1.35.08c.63.08.81.36.76,1s-.06,1.31-.1,2c-.06,1-.09,1.94-.2,2.9-.3,2.65-.64,13.29-1,15.94a4.46,4.46,0,0,0-.07.51,22.68,22.68,0,0,1-.65,4.41,28.16,28.16,0,0,0-.41,3.29c-.14,1.83-.24,3.66-.56,5.47-.27,1.54-.46,3.08-.66,4.63a11.47,11.47,0,0,0,0,1.76c0,.54.11.63.68.72.34.05.69,0,1,.08.64.09,1.3.18,1.94.32.44.1.53.36.36.79a2.85,2.85,0,0,1-.25.45c-1.22,1.76-2.43,3.53-3.67,5.28-.4.56-.85,1.09-1.3,1.62a.89.89,0,0,1-1.45.14A48.41,48.41,0,0,0,24.12,169c-1.43-.91-2.9-1.75-4.34-2.64a15.75,15.75,0,0,1-1.35-1,2.24,2.24,0,0,1-.49-.53.57.57,0,0,1,.34-.9,3.5,3.5,0,0,1,1.33,0,9,9,0,0,0,2.37.15c1.28-.08,1.19,0,1.29-1.22.09-1,.09-2.08.18-3.12.21-2.48.45-5,.68-7.44.07-.69.14-1.38.2-2.06Z"/><path class="cls-2" d="M24.21,342.81c.13-1.2.27-2.4.39-3.61.29-2.94.43-19,.51-22.05,0-1.63.06-3.25.07-4.88,0-1.21-.58-3.41,1.09-3.54a17.33,17.33,0,0,1,4-.19,31.2,31.2,0,0,0,3.21.12,12.22,12.22,0,0,1,1.35.08c.63.08.81.36.76,1s-.06,1.31-.1,2c-.06,1-.09,1.93-.2,2.9-.3,2.64-.64,18.29-1,20.93a5,5,0,0,0-.07.52,22.68,22.68,0,0,1-.65,4.41,28.16,28.16,0,0,0-.41,3.29c-.14,1.83-.24,3.66-.56,5.47-.27,1.53-.46,3.08-.66,4.62a11.63,11.63,0,0,0,0,1.77c0,.54.11.63.68.71.34.05.69,0,1,.08.64.1,1.3.18,1.94.33.44.1.53.36.36.78a2.55,2.55,0,0,1-.25.46c-1.22,1.76-2.43,3.53-3.67,5.28-.4.56-.85,1.09-1.3,1.62a.9.9,0,0,1-1.45.14,48.41,48.41,0,0,0-5.17-3.45c-1.43-.91-2.9-1.75-4.34-2.64a15.75,15.75,0,0,1-1.35-1,2.24,2.24,0,0,1-.49-.53.58.58,0,0,1,.34-.91,3.72,3.72,0,0,1,1.33,0,8.6,8.6,0,0,0,2.37.14c1.28-.07,1.19,0,1.29-1.22.09-1,.09-2.07.18-3.11.21-2.48.45-5,.68-7.44.07-.69.14-1.38.2-2.06Z"/><path class="cls-2" d="M31.29,247.71c0,4.19-.2,8.39.16,12.56a.29.29,0,0,0,.31.3c.84-.06,1.72,0,2.55-.14.36-.07,2.94-.39,1.84.81-.49.53-1,1-1.53,1.52-1,.92-2,1.83-3.06,2.72a27.68,27.68,0,0,1-3.14,2.61,1.13,1.13,0,0,1-1.22,0c-2.71-1.79-5.54-3.38-8.27-5.14-.68-.45-1.63-.88-1.46-1.33s2.12-.35,2.54-.35c.78,0,1.56,0,2.34-.07l.47,0c.21,0,.24-.13.21-.34-.11-.65-.22-1.29-.3-1.94-.6-5.54-.31-35.48-.95-41-.19-1.67.08-2,1.59-2.08s3-.18,4.55-.29c1-.07,2.56-.53,3.12.78a3.32,3.32,0,0,1,.2,1.13C31.36,219.4,31.3,245.74,31.29,247.71Z"/><path class="cls-2" d="M24.21,531.9c.13-1.2.27-2.4.39-3.61.29-2.94.43-17,.51-20,0-1.63.06-3.26.07-4.88,0-1.21-.58-3.41,1.09-3.55a17.33,17.33,0,0,1,4-.18,31.2,31.2,0,0,0,3.21.12,12.22,12.22,0,0,1,1.35.08c.63.08.81.36.76,1s-.06,1.31-.1,2c-.06,1-.09,1.94-.2,2.9-.3,2.65-.64,16.3-1,18.94a4.63,4.63,0,0,0-.07.52,22.68,22.68,0,0,1-.65,4.41,27.89,27.89,0,0,0-.41,3.29c-.14,1.83-.24,3.66-.56,5.47-.27,1.53-.46,3.08-.66,4.62a11.6,11.6,0,0,0,0,1.77c0,.54.11.63.68.71.34.05.69,0,1,.08.64.09,1.3.18,1.94.33.44.09.53.35.36.78a2.55,2.55,0,0,1-.25.46c-1.22,1.76-2.43,3.53-3.67,5.28-.4.56-.85,1.09-1.3,1.61a.89.89,0,0,1-1.45.15,48.41,48.41,0,0,0-5.17-3.45c-1.43-.92-2.9-1.75-4.34-2.64-.47-.29-.91-.63-1.35-1a2.45,2.45,0,0,1-.49-.53.58.58,0,0,1,.34-.91,3.72,3.72,0,0,1,1.33,0,8.23,8.23,0,0,0,2.37.15c1.28-.08,1.19,0,1.29-1.22.09-1,.09-2.08.18-3.11.21-2.48.45-5,.68-7.44.07-.69.14-1.38.2-2.07Z"/><path class="cls-2" d="M31.29,439.3c0,4.19-.2,8.39.16,12.56a.29.29,0,0,0,.31.3,24.07,24.07,0,0,0,2.55-.15c.36-.06,2.94-.38,1.84.82-.49.53-1,1-1.53,1.52-1,.92-2,1.83-3.06,2.72a27.68,27.68,0,0,1-3.14,2.61,1.13,1.13,0,0,1-1.22,0c-2.71-1.79-5.54-3.38-8.27-5.15-.68-.44-1.63-.87-1.46-1.32s2.12-.35,2.54-.35c.78,0,1.56,0,2.34-.07l.47,0c.21,0,.24-.13.21-.34-.11-.65-.22-1.29-.3-1.95-.6-5.54-.31-38.47-.95-44-.19-1.67.08-2,1.59-2.09s3-.17,4.55-.28c1-.07,2.56-.53,3.12.78a3.32,3.32,0,0,1,.2,1.13C31.36,408,31.3,437.33,31.29,439.3Z"/><path class="cls-2" d="M31.29,58.63c0,4.19-.2,8.38.16,12.55a.29.29,0,0,0,.31.3c.84-.06,1.72,0,2.55-.14.36-.07,2.94-.39,1.84.81-.49.53-1,1-1.53,1.52q-1.51,1.38-3.06,2.73A30,30,0,0,1,28.42,79a.92.92,0,0,1-1.05.08L27.2,79c-2.71-1.79-5.54-3.39-8.27-5.15-.68-.45-1.63-.87-1.46-1.33s2.12-.35,2.54-.35l2.34-.06c.16,0,.31,0,.47,0s.24-.13.21-.34c-.11-.65-.22-1.29-.3-1.94-.6-5.54-.31-43.48-.95-49-.19-1.67.08-2,1.59-2.08s3-.18,4.55-.29c1-.07,2.56-.52,3.12.78a3.33,3.33,0,0,1,.2,1.14C31.36,22.31,31.3,56.65,31.29,58.63Z"/><path class="cls-1" d="M43.82,6.85a2.47,2.47,0,0,1,0,.54.42.42,0,0,1-.59.26A.69.69,0,0,1,42.79,7c0-.79-.08-1.59-.11-2.39s0-1.38,0-2.07a1,1,0,0,0-.09-.47c0-.07-.26,0-.38,0a.47.47,0,0,1-.27-.77,1,1,0,0,1,.17-.18,3,3,0,0,1,4.8.8A3.33,3.33,0,0,1,47.3,4.1a.93.93,0,0,0,.28.89,4.42,4.42,0,0,1,.82,1.33,1.92,1.92,0,0,0,1,1.19.31.31,0,0,1,.17.17.75.75,0,0,1,.07.45.59.59,0,0,1-.38.27,1,1,0,0,1-.83-.31A3.34,3.34,0,0,1,47.59,7c-.14-.3-.27-.6-.43-.9a2.43,2.43,0,0,0-.33-.46.27.27,0,0,0-.37-.07c-.19.12-.37.24-.56.34a2.9,2.9,0,0,1-1.75.37c-.34,0-.36,0-.35.34C43.8,6.65,43.81,6.73,43.82,6.85Zm-.2-4.39h0c0,.24,0,.49,0,.74s.08.41.39.39a3.93,3.93,0,0,1,2,.24c.19.07.3,0,.31-.23a2.48,2.48,0,0,0-.57-1.69,1.51,1.51,0,0,0-1.12-.62c-1-.06-1,0-1,.92Zm1,2.08a3.33,3.33,0,0,0-.57.14.35.35,0,0,0-.15.25.32.32,0,0,0,.17.25,1.38,1.38,0,0,0,1,0c.2-.07.52-.1.52-.34s-.32-.22-.53-.26Z"/><path class="cls-1" d="M24.6,5.05V7a2.81,2.81,0,0,1,0,.41c0,.32-.21.52-.43.5a.52.52,0,0,1-.48-.49c0-.6,0-1.21,0-1.81,0-.8.05-1.6.09-2.4q.06-.83.15-1.65a1.46,1.46,0,0,1,.15-.46c.18-.35.38-.41.74-.21A4.17,4.17,0,0,1,26,2.09c.42.54.8,1.12,1.2,1.68l.29.4a.3.3,0,0,0,.5,0,5.82,5.82,0,0,0,1.59-2l.24-.61a2.85,2.85,0,0,1,.68-1,.57.57,0,0,1,.95.17,1.68,1.68,0,0,1,.09.32,16.76,16.76,0,0,1,.63,4.16,12.64,12.64,0,0,0,.15,2.3.45.45,0,0,1-.28.54.58.58,0,0,1-.67-.18,1.45,1.45,0,0,1-.19-.54c0-.44,0-.88,0-1.32-.09-1.21-.19-2.42-.29-3.63a.94.94,0,0,0-.06-.15c-.05,0-.13.09-.16.15a9.32,9.32,0,0,1-1.53,2.25A2.62,2.62,0,0,1,28,5.42a.71.71,0,0,1-.89-.23c-.24-.3-.45-.63-.68-.94L25,2.3a.3.3,0,0,0-.22-.06s-.05.09-.05.14C24.69,3.26,24.65,4.14,24.6,5.05Z"/><path class="cls-1" d="M20.82,4c0,.19,0,.38,0,.57a.7.7,0,0,0,.16.54,3.59,3.59,0,0,1,.65,1.33,3.34,3.34,0,0,0,.55,1.1c.21.3.17.58-.05.73a.58.58,0,0,1-.81-.16,11.24,11.24,0,0,1-.63-1.25c-.12-.25-.17-.52-.27-.78S20.18,5.9,20,6a3.05,3.05,0,0,1-.85.51,2.65,2.65,0,0,1-1.22,0c-.23,0-.32.08-.24.28s.15.36.21.54a.4.4,0,0,1-.2.56.47.47,0,0,1-.59-.13A.78.78,0,0,1,17,7.57c-.26-.93-.54-1.86-.76-2.79a3.14,3.14,0,0,1,0-1.72,3,3,0,0,1,2.05-2,1.89,1.89,0,0,1,2.43,1.48c.08.49.1,1,.15,1.48Zm-.94-.41c-.05-.3-.07-.63-.15-.95-.15-.63-.44-.82-1.08-.72A2.07,2.07,0,0,0,17,4.34a.15.15,0,0,0,.24.12,2.73,2.73,0,0,1,2-.24l.25,0c.2,0,.3-.09.33-.28S19.86,3.77,19.88,3.63ZM18.59,5.08a5.9,5.9,0,0,0-.61.15c-.06,0-.14.13-.13.18s.09.21.16.23a1.22,1.22,0,0,0,1.15-.19s.09-.11.07-.13a.32.32,0,0,0-.15-.17A3.55,3.55,0,0,0,18.59,5.08Z"/><path class="cls-1" d="M37.76,1H36a4.89,4.89,0,0,0-.66.05c-.33.05-.41.15-.4.49L35,2.9c0,.2.12.29.33.26a5.44,5.44,0,0,0,2-.49.35.35,0,0,1,.51.1.47.47,0,0,1,.08.6,1,1,0,0,1-.36.32,3.63,3.63,0,0,1-.79.25c-.37.08-.76.12-1.14.19s-.5.18-.5.62a7.67,7.67,0,0,0,0,1.07c.08.57.32.75.89.74a5.19,5.19,0,0,0,1.68-.42c.18-.07.34-.17.52-.24a.47.47,0,0,1,.58.2.44.44,0,0,1,0,.54.85.85,0,0,1-.35.33,9,9,0,0,1-2.3.64A1.84,1.84,0,0,1,34.2,6a2.81,2.81,0,0,1-.06-.65,1.14,1.14,0,0,0-.35-1.05.34.34,0,0,1,0-.52A.83.83,0,0,0,34,3c-.08-.71.07-1.42,0-2.14A.43.43,0,0,1,34.17.5a1.9,1.9,0,0,1,.72-.37A6.4,6.4,0,0,1,36.2,0c1.08,0,2.15,0,3.22,0a4.13,4.13,0,0,1,.5,0c.38,0,.57.21.57.47s-.2.43-.58.44-1,0-1.57,0h-.58Z"/><path class="cls-1" d="M14.47,8a.5.5,0,0,1-.37.49.55.55,0,0,1-.62-.3,2.8,2.8,0,0,1-.16-.72c-.08-.52-.13-1-.2-1.55,0-.35-.15-.42-.49-.37-.9.13-1.8.26-2.7.42a.44.44,0,0,0-.29.23c-.17.41-.31.82-.46,1.24s-.34.49-.6.41a.5.5,0,0,1-.35-.65,5.18,5.18,0,0,1,.31-.94c.63-1.28,1.27-2.57,1.93-3.84a3.15,3.15,0,0,1,1.24-1.19.81.81,0,0,1,1.15.31,2.92,2.92,0,0,1,.34.74c.27.93.55,1.85.76,2.79s.33,1.85.48,2.77ZM10.84,4.79l1.75-.27a.24.24,0,0,0,.19-.31c-.19-.63-.38-1.25-.59-1.88-.07-.2-.21-.22-.38-.06A6.56,6.56,0,0,0,10.4,4.55c-.05.12,0,.2.16.22Z"/><path class="cls-1" d="M4.36,1.41H6.59a1,1,0,0,1,.76.25.38.38,0,0,1,.09.46c-.07.16-.16.29-.37.26a25.22,25.22,0,0,0-3.79.05,3,3,0,0,0-.42,0,.27.27,0,0,0-.25.27.11.11,0,0,0,0,.08c.27,1.47-.1,1.36,1.45,1.25l1.81-.14a.84.84,0,0,1,.68.23.36.36,0,0,1,.12.44.7.7,0,0,1-.34.32,2.64,2.64,0,0,1-.57,0L3.3,5.22a.26.26,0,0,0-.24.35c.11.46.23.91.35,1.36,0,.19.13.37.16.56A.41.41,0,0,1,3.35,8a.45.45,0,0,1-.6-.1,1.76,1.76,0,0,1-.27-.59A23.36,23.36,0,0,1,1.7,3.23c0-.35-.06-.66-.49-.74-.09,0-.17-.13-.24-.21a.36.36,0,0,1,.13-.56,4.79,4.79,0,0,1,1.11-.24c.72,0,1.43,0,2.15,0Z"/></g></g></svg>